<mxfile host="app.diagrams.net" modified="2023-03-28T14:04:49.209Z" agent="Mozilla/5.0 (Windows NT 10.0; Win64; x64) AppleWebKit/537.36 (KHTML, like Gecko) Chrome/108.0.0.0 YaBrowser/23.1.5.708 Yowser/2.5 Safari/537.36" etag="V_Ce1ND6kAJdDnVogczi" version="21.1.1" type="github">
  <diagram name="Страница 1" id="wyObIyDnzFT1WeK7dPA3">
    <mxGraphModel dx="1167" dy="660" grid="1" gridSize="10" guides="1" tooltips="1" connect="1" arrows="1" fold="1" page="1" pageScale="1" pageWidth="827" pageHeight="1169" math="0" shadow="0">
      <root>
        <mxCell id="0" />
        <mxCell id="1" parent="0" />
        <mxCell id="2QzjrHOPYdLenBr6jiEW-1" value="" style="shape=image;verticalLabelPosition=bottom;labelBackgroundColor=default;verticalAlign=top;aspect=fixed;imageAspect=0;image=data:image/png,iVBORw0KGgoAAAANSUhEUgAAAYwAAAD/CAYAAADi+OGRAAAgAElEQVR4nOydeVxNef/A36aUpZt96GanhSjqXow12YmMpZkGM8hS/AYzE2Ye22OZGdsYzBBGlsfORBHG0iJ79yZlqRgldEPW7tWmnN8ft64ihFbO+/Xycu+53+VzTuecz3f5LGUEQRAQERERERF5A58UtwAiIiIiIqUDUWGIiIiIiOQLUWGIiIiIiOQLUWGIiIiIiOQLUWGIiIiIiOQLUWGIiIiIiOQLUWGIiIiIiOQLUWGIiIiIiOQL/eIWQESkZJLJwwtB7FbeRwNUb9KW3ijxupgCgKRSbRx6tKZ63CkOhCeQkKqt1bSjM/IHB9gZmUIG5fmsV2/Mru/D67ElHj0sX+7mij+LTz5CopdJBgaYtelK98aPOLf3LMcfZ8JTPWrZtuYLW5O85YkzwfWLulzdEcS9li70xp/FweDUEXzDjHD9QkbGyX1sjJRoj73Yl3l5NFHH2XH6rrbdRi0Z2DGTgLVRVP+8P62qRXFgbRh0bAnBWceensLLLw6Tjs58lnb8hfN3obd5Ufx9RIoDcYYhIpIXSWHsDU6g8mf9mdi/IVwMI0KTjqa6FR6jetMyM4YDyjMcDopD38YZj1FW1ElJR50aw9V7FfisV18cjB9w4MwlMtLT0aSk593P0zQ0GmjSZyCuzeDUkWAioqNRaD5lwDBnxrbQIzLkMrGvkic1nQwgNTUd9dOs9lLSyHiapv3toZK95x8/P/ZCX5GPlew4koBJx/5M/KIhXDjL4StpqFPSSc0ESEedko76aXrWsQeEBFzlZko66qeXXj7/p0X3JxIpesQZhohIXty8S+yzqnxhaQDIGDIKEoN3EhgfweK1EaSm6GEts6DBwxvsDz+Ad1wmt4Faema0dazMOb997FfpYdahHiRFwe0ovLZGoUkzoEm7rnQ3N3rel/GnNKmmR7nMatR4lsCjimY0rxHFgXXbSH2WDk8NSH2VPK89iXTCjsaQalQekvLuKzEabpKJ5uw+vIDUcnpkPNBQjhSCfbYR8kkmqYBZVnVNRDABT8tTgxSgNk2lEbnPv2D/CiIlDHGGISKSF7UqY4KGxLtAWgTe6/dxOQUwtcZjlAvfmOtx7tQ1alhWRf9xClWa16Y6QGoMkeGPaNDbGdfmBlyNuKR9V9eyxPUrZ5zrpXAqLIrUnH2lpPDoGfAknRQMeHL+FIcTq+E80gXX5kavl+d1JN3iVFI9+tnmUE4v9GVkIqEK5ZH3GojrV23p2KA2rRpVAMrTsb8LHqOsdcoCUgiJTKGtg6X2XKmK2YvnL/JBI84wRETyopo1Do3j2LHXm6tlU3hYwZLm5WPgVgzePjHEqjKp00zg2PFEJC2641AvkR0AhgYknvfH90IUVZJTMLGqi3HmLbgfg/euKCITwbaTJeVy9vU0Ae+t+6iS/ACJbRc6Vwwj9GQce/cmkKjSAHqkGL1CnpQEDvs9QpMCqRcO481joFJWw3rYdupAnbRDr+zLtk5lJOYH2OHtTWyFdGJTqjGwTSVeRbnGLeleJ117rukR+J594fxFPmjKiNFqRURew7MUUp8aUM5Q7+3qpWnIKGuE/pvm8JcO8F+lhPFftqRKzvKv6vdd5XldX+/brshHgzjDEBF5HZ+Up5zhO9QzNMrfw1XWEKNyBui/WP5V/X5SnozMFKD828v0qr5e15+ISA7EGYaISCnimSCwda8/prWq07l1i+IWR+QjQ9z0FhEpRRwLCUeTnCIqC5FiQVQYIiKlhITEB5w5f5mu7WyLWxSRjxRRYYiIlBKCzp7HxrIRjeuaFrcoIh8posIQESkFBJ49z8MkNV0+E2cXIsWHqDBEREo4gWfPcywkHMfOn2FoULa4xRH5iBEVhohICSby2g2OhYQzuGcn6pp8WtziiHzkiApDRKSEEnMzgR0HArG1MsPKrH5xiyMiIjruiYiURBQXotgfdJYWTRrTz6FtcYsjIgKIjnsiIiWK9KdPOXwylH+vx9NB3hw7KzG5hEjJQVQYIiIlhH9vqDh6MpQaVSvR5TNbKhsbvbmSiEgRIi5JiYiUAALPnudE6AW6tZXRpkWT4hZHRCRPxBmGiEgx4H0oGPWTFPT0PiElNQ1Dg7J0bWuHaU0xq4RIyUWcYYiIFDGBZ89z4Uqs9ksZqG9qwjefdy9eoURE8oFoVisiUsTUqFr5+RcBDPTFHBQipQNRYYiIFDEmNapS3/R59mubJo2KURoRkfwj7mGIiBQDmZnPuJlwF4D6tWu9obSISMlAVBgiIiIiIvlCXJISEREREckXosIQESlM1LFEqtLfsbKKoyt2Ea4uUIlERN4ZUWGIiBQa99n9ozN/hLzrG/8+59ec5FpygQolIvLOiH4YHyBqtZro6Kuv/N3CwgyJRFKEEn0AJKsIv5RG9ZoabqmltLA0IMp7IcsP3wf9+vTxGEcTxRxmXnRg6Zx2RM53Z3e5Nty5CKqHc9ltPpdGF3OWn8SAxtFs+MqT8zUh/k4SpnJ3pn/XjrRjy1i0PpzEKuUAAxqiJkZxHUNTI27dMaRFSymGxX09RD5KRIVRCohXJZCgSiAq+gpJajUKRajut6joK6jVrx/BymS2REVdQaPRvLKMRCLB0uJ5oDtLS3MkEgmtZHaYSE0wlZq8/4mUWtQcnTOY3VZTaPizL6a/r6Op/wyG+Fiwa9NQGp5eSNtvd7J59zA67HBjyngLom7LWbfVhWsxGznabQbdbi3ks1zlN9PET869Swr46h92tVcwqdNCdrceyfkJ4XTwWYdL8jr6BUQAEvj3d/od7oXHHU82xu9ipWO14r4oIh8hosIoIWTPCuJVKuJVCURHXyE+XkVU9BUApCYmSE1NsLQwRy6zRS63e6kNqVT6Vi92tVqtaz8nUVFaJRSiUOLjsw9VQgIAlhZaJSKX22GcpWA+htmK+tgypiqcGVtzHcvlUwhtAFEHAiD5PhumRUOmGssq6cQ/ac6EWUOxH76OPstXYVNBzbWsNmKu5lH+IYAFra2qQWVTaqMi6eZ1grFhbAMAOR2JAKCh83d8092NSEdnbv28gP1tFtJHjCIiUsSICqMYiYq+QkDgMRSKUBTKUIyMjLC0NMdUKsXC3Ix+fftgbCxBLntZORQEEknebWcfG/eCrOqs2U1SUhIhCiV/rlyNRqPRKjG5HV062yOTfXg5pyVyJ1wk00mq5YTN8pOc/a4djWrZgFk/ps/vieTOSbadNqZFBRW7167D2MKC/b9vxqW9E4ZZTtzV8yovgfNUx7BCzs6kNEHBrUdgQzy3gIZA2umDbJS44lHxH847z6DrB6gsoqKvoFHnngUnvWJQ8yKmUhNMpdJcx4wkRrlmzSLvj+iHUYTEqxIIDDyGQhlKiCIUQRBoJbdDLrPDwcG+VC77xKsSdArPPyAIjUZDFwd75DI7ZDLbD+eBjQ3kZ+80uspjOXrHAQ9H2Pb9RPZXdqBhTAC3ui5iKnP5KnwIh5bLOfvdYDY0WMXCKnMZtB4mLJqLwbrc5deNgT9svGh4eCkDal5gsc1I2HCSbqdG4qawpBsH2R0mZ87hGZgGHCStcXVCDqfR5zsnmlR4s8glkeyZdM7lVVXWrDonec1cjV9YNo1XJRCvUuXZfk5MpSZIpVLdYMzSwlxcZn1HRIVRyCiUofju9UOhCCVelYBMZksrmR3yLEXxoREVfQWFIhT/wCCUynOYSk105+rUz7G4xSt40tJJ0zfQzSQKrHxmOmm8RbslELVarZ1BK0OJj09AodTuvWXPpC0tzDHOWuJ82+XU/BKvSkClUhEVdYV4lXaJVxWfoFtmlcvsMDaW4NC5EzKZnahE3oCoMAoBtVqN7979bNq8lcdJavo7OSKX2dFKbvfBr/e/iH9AEAplKAEBxyhTBpyc+uLUz1F8MD9QlMpz+AcGoVCEEhV9BQsLM+QyO92LuSQNkhTKUJKS1ERHX8E/MIjo6KuYSk1wyJohO3TuVNwiljhEhVGAREVfYfOWbfgHHEMqrcWwIV/R3+kDHFW/Iz6+fvjs3YdSeY7+To449XMsUS8Qkbcn5zKrf0AQRkZGuiVJubx0jdi1hh6hun1FVUICcpkdXRzs6dy5U6k6l8JCVBgFgO9eP3x8/VAoQ3Hq58iwoS4fztp9IRCvSmDT5q34+PpRyVjCOPcxOHTuVCJmXz/+Zybzf5lT3GKUeBTKUDZv2Y5/QBAymS1dOtsjl9t9UPd99vKqQqlVInKZHcOGunzUMw9RYbwjarWaTVu2s2nzNiRGRgwb6kJ/J8cS8dIrLajVavwDjrFpy1ZUqtv0d3JknNvoYruGm7dsx8SkFl0c7Iul/5JO9p7ESs81uqXWYUO/+ihG3vGqBHx99+Hj66dbWh025MuP7nkXFcY74LvXj/kLlyCV1mKc2xjdC0ahCOXQkaM8fPgIQ0NDGjSozxeDB2BsbFzMEpd8FMpQVniuITr6KsOGuhTLw9jMRs7FcAXHgk+wafNW1q5ZCcBXQ0ewdfN6nD535lqMNlPeij9+Z8PGzfx7LYbk5GTq1avLT1N+YPvOvzl0+CgA0/8zlS+/GMQIVzfWe60C0H0+FnyCn6bNIi09jX6OvZk14z+s8FyD56q/dPKcDPZny9btuuWdZjZy3Wdf333EqxKoW6cOjo69UChDWb92VaFcl3hVAp6r1ohLrVm8uLQ6dMjHs6IgxpJ6CxTKUHr06seKlWuYOvl7vHdufWk0+vDhI7p360LLFjZs37GL02dCikna0oVcZscGr9UsX7oI/4BABjkPwXevX5H1H69SUaVKFQA6dWxPQsJtrsXEcuasgvbt2xIQeAzDcuW4GK7Ad89OLl2OZL3XKpYs+pU+vXuye9dWMjIzadSoIRfDFaxfu0qnOLKVTM7Pk76bwqnj/oSePUGd2rV13vvubqO5GK6gcaOG3Lx1i2fPngGwdNmfdOzQHoBxbqM5dHAvlStX4oDfbsa5jaYwxn3xqgRGuLrRo1c/BAGWL12E986tH7WyAOjv5MgGr9X8vXMLggCDnIcwwtVNZwX2ISMqjHygVqtZsGgJ3070YOgQFw7/s/e1D02P7l0ZPOhzPmvTCpUqgevX42hmI6eZjZzvfpgKaEcp2cd+/M9MAFq37cSyP1bq2pnw3WQWLFoCQP8BX+jKz577CwCz5/5CMxs5vR0HsHLVX6xc9RefD3KhQ6duOH3uzMpVf2lv5KyX0YRJHsz7ZQEjXN3oYN+dZjZy+g/4AoUilBGubnmey82bt5j43WSa2cj5augIHj9O4ljwCca6f0szGznfjBwDwArPNazwXAPAD5N/4lpMLL/OX0y3nn1pZiPHx1f78v9l/iLdeeze4/tSf3KZHd47t+LuNoZfF/zGCFe3l2z0CwNVfAKNGzXUff/K5Qu2bd/J3n37ad/uM/Yf+AfXEV8D0KhhA8a5jdaVrVy5EgBNm1iyddsOmtnIGTHKDRMTbWKkBw8e6M75wYMHALRoYa2r37yZFSFZL5syZcrQzEbOv9di0GieAGW4cPESh47449SvTy6ZK70wc83uY6DzkPe6Ftn3e49e/ZBKTTh0cC8/z50lGii8gKWFOT/PncXpEwHIZbaMcHVj+szZRXK/FheiwngD/gFBDHIeQmRUNN67tjJsqMsb6/ww+SeGfD0SH18/ZDJbDvxzmJPB/lwMV5B47x4AqoQE3TG//QcBKFeuHH+tXa9rJywsHICLly5z524iF8MVXAxXsOvvPQDs+nsPF8MVHPDbjUIRyji30ez5exuNGzfCd8/OXC+1PT57ycjMBNCNjOUyO3x270AutyMu7kae57Jv/0EsLMy5GK4gIzOTS5cvc+lyJEOHuHAxXIHczhaFIpQK5csTExPLcNexjHMfg7GxhEqVK3Hkn33aUflePx4/TqJy5cpcDFfw26JfOeof9Mpr2N/JkSP/7EUiMWKQ8xA2b9n+xuv+PkhNTfj3Wozu+6BBn7Pr7z0cP34S6+bNsLfvyPYdfwPaWcLCxb/rypYrVw6AM2dDaN1Ku6zVo3tXan5aA4D69erq/nbZL92w8+d1s43IqGidshIEgYvhCtzdRhN6LgwQWPbHSmZMm0rVrBlQNpUr58wNLuj6iM6HZ/Sr2LxlO917OREZFa1TFB/DHsX7IJFoDTcOHdyLIECPXv1YmWNp8UNCDA3yGhYsWsIen32Mdx+TL0UBULZsWTrbd8TY2JjP2rQCIOLCRdp17AJA/fr1AO2ywtkQBeP+7ztGjxoBQMUKFZHZ2eLjuw+F8hzj3cdw4+ZNwsLCUavVNLOR6/pRKEJzjfiy18jzIl6lYsasuWze6MWBg4fyLHM3MVHXfo/uXflt0a86OUGrBC9fjiQ5OQW5nS3nIy6wZet20tLSad1KTnJKCo0aNqBMmTI0athAe6716jJn7q/EXo8DoFIlY8a5jeZ/m7aycPHvrPhjyWuvpUQiYfnSxfgHBDFtxmyioqOZN2fWa+u8K6ZSKQ8fPtR9NzQwoHUrOXXr1gagb59eBAUF88Pkn7hw4RJTp3z/Uhs9unflh8k/cejwUWrXNuXBA217NWrUeKnsyj+XMmjwEPT19Rg+fBhfD/uKf7P2MLL3MS6GK1ixcjW9e/Wg7WdtcgWdBDAwMMj13aFrb1JSU3HPMVDIL/GqBKbPmE1kVDQ/z50lbvy/A6ZSE36eO4v+To5Mmz6bgIAgli1d/GEpXEHkJZKSkoQJkzyEbj36CpFR0fmuFxKiFJYuX/HScStrmSAIgnD79h3d57CwcEGtVguCIAjDR44VQkKUwuAvhgo3b94SOjn0EKysZYLf/oPC70v/FG7cuCm0addZ1976DZuE23fuCPI2HXXHho8cK6Slpes+5zzermMXYZ/fQSEkRCksXrJMJ2vOctlyvfh5heca4dKly4IgCMI/h44I33v8KLRu20kICVEKgiAIXw0bIYQolMKfK1cLKzzXCN9O8hD+XLFK8A8I1LX/z6EjwtfDRwsnT53O87rkh1vxKmHAYBdh4OCvhKSkpHzXexv27tsv7N23XxAEQbh48bLQuUsvIUShLJS+ShJH/QOFNu06C99O/KHQru3HRlJSkvDrgsVCm3adhT0++4pbnAJDnGG8gFqtZoSrG0YSI7x3bXlrS52yZcu+dKx7ty660Xv7dp+xctVfCILA0G9cdWXk8lVUrFiR2rVNkZqY0LVLZypVqkTZsvrUqVMbxz49tWvUVk3p2LE9NT/9FJcvB+vaHTzocwwMXu4boFrVqjj26YlCEYrhC6NSXf8yOzrYd881ygZo2KA+Y9y/5dGjxwD8/tsC0tPTGTFKu+fRtUtnVnr+hUxmiyAILP99EZOnTsPaujkKZahOPhvr5pTVL8vE7ybjHxCk6zO/mEpN2OC1mvkLl9C9lxPrvVYVuGVKX8feuqWEWbPnMfu/0z/4dfvNW7Yzf+FvzJsz66PfzC5IJBIJP075AbnMjmkzZhN95QpTJ788Ky1tiGa1OchWFhZZm1kiJZNpM2YTEHisUJTGx8T0mbM56h/EhnWrxetYiERFX2HCRA+aNLFg2e+Liluc90JUGFlkKwup1ITlSxcXtzgib2DajNlER19hvdeqj8556lUoFKF55knJi+kzZxMSEsr6das/rDX2EoparWa461iaWFoU2j5cUSAqjCzGfzsJlSqBFX/8jpGRUXGLI5IP5v2ygKtXr7HHu3AtqEoLgUHBJCUlvTEq8PyFv+Hj6yfOLIqYD0FpiHsYaH0ijp84zbNnz+jey6m4xRF5C6pXq8ZKzzWMcx9TYG3O+2VBru+dOrTnwqXLrMzyM6lbpw7zf52DdfNmrFz1l86SbMDgr9i9aysAtvK2GBqWY+iQLxnvPoYzZxWMGqNNSVWlShXGu4/hyy8G5ar/64LFdGjfjpOnTqNSJZCZmYmpVMpPP3rorK8ANq5fw9kQJSqVikePHmNkVJG6desyzm00rqPHvVZh+AcEicqimJBIJGzwWk23nv2wMDfPt+VlSeKjVxjxqgQWLFrCvDmz6NihXXGLI/KWXP33GiNcx+LgYF9gL8Br12J1ZsobN20BIDPLh+ViuILjJ04xe+4veO/cypkzIYxzG83SZSt0viwrPNeweuUfyOV2HDp8lBMnT6Onp6erD1onuy+/GER4uDYF64mTp3VmuFMnf49CEcruPb789KOH1ifi8NFcdbM/j3B148/lz82TK1asyIMHD6laNbfPBmhHuNNnzmG8+5hCUxYKRSgPsgwn9PX1RfPcF5BIJPw8dxbTZ84plUnTPnqFsdJzDQ6dO9Gvb+/iFkXkHZDLbBnnNpoFC5e81hflXUlPSwfgWWYmUzy+A8C2ZQuuX9cqh9TUVBTKUCwszHQe397ePnydNXqsWqUKO//ejfOgAbksrizMzYDnTn8XLl6iYsXcafQqV9E65vn47API5YfzKvT19bgeF5enwpi/cAlymW2hj2y37/ibqlWrEB+vYuJ3k9m9ayvmWecrAl0c7FEoQ5k+Y3ah3LOFyUetMOJVCfju9ePQwb3FLYrIezBsqAv/27wNhTK0wM1gn2ZkAFpz6Xv37wNwLuw8jRtrPbNTUlMJDApmisd3rF23AYC2bVsTez0O6+bNuHnrFhYW2pdldqyhlJQUrmfNRpKS1Iz79jvmzJr+kjd79mZ+y5Y2REZF878NWpNfpfIc8SrVSzmsAS5HRlGxwsv5W4v6Xs92/FzhuYaj/oGYm5vRzEZOzZqf0tm+I9P/M5Xz4RHM+3kBd+7cZcTwYYwc8TUtZW1ZvnQxHdq31dWPi7vBwvnzOHT4KD9M/okO7duy4Ne5GBsbE33lKnPm/YqxRMJPP3rgt/+fPOWR29kil9uxctVfPH6cRKVKxi/9HqIMZXwBLm2+jvHuY+jWs1+h3LOFyUcdGmTT5q04iIlRSj0SiYSvh7qwafO2fNe5cfPmS57Tr0JPXw/KlKFq1So0s5HjPn4ivXp2ByA29jpDXL4AwFiifQl179aVb0aMRqEI5dcFi+lsr82fkO1Ls/xPT3r26KZr3+WLwVSvXg0DQwP0Pnn5kezZoxupaWn8NG0Wv85fjM/efXkqC4C7dxOxyGO5aaXnmiLPdBgbe539+/+hVSs5vy/7E6+/VrJm1Z9s3/E31+NusH3HLn760YNN//NiydI/AO2M69f5z60UN2/Zjt4nn/DkSTI/TP6Ji+EKHDrb07aDNnLCwMFfMXjgADxXLKO34wCaN7OiUcMGKBShNGrYgOZWTSlnaAho46Jlx/IyN2tMo4YN8Fq3UReZwLMIw3lk37MrPUtZCJHi8xksfrr37Csc9Q8sbjFECoDIqOg3eo4nJNwWNm/dLriNmyBYWcuEsyEK4VZ8fL7aX+G5RjgbohD+OXREePTo8RvLazRPhJAQpaDRPBEEQetZv2jx78KtW/HC7dt38tVnTlJTU4UrV64Kd+7cfWWZuBs3hDnz5uf5W5t2nd8qasG7kh1BoHPXXoK9Q09h0+ZtgiAIws2bt4TJU6cJf65cLcyZ96tw//59XXlnl2FCzz79BUEQhC7d+whDv3YVgo+fFI4FHxfad+om/PjTDOH0mRDBylqW658gvDpaQM4oBn+uXC2cOn1WGOP2rfDPoSPCL/MX635z6NZb99nKWiZM/Wm60LaDg+DjW/je2bfiVYKVtaxUedd/tEtS8aoE4lUJtMqn3XpBoA7bxfpTsUT57eKx7Uha27RnhHNzRC+C98fSwhypiQn+AUEvbbRevHSZfX4H2ee3n8/atKZ7ty5M8fgOqVSKoWHenu95UYYy9OjeNV9lK1as8JJPRIWKFTE1zXtm8CYMDQ0xM2v82jLHT5zCfeyol44rlKEIglCkVlEBRw7k+u61fiOZmZmMdx9D+05ddV7Pcrkds6b/hLPL11yLicWoYkXmzp7BuP/7DhOTmriO/Jrr1+OoXLkS9evVxXvXNjQaDQ8ePuTGzZu5+li56i9srJvRru1nL8mTmJhIX8deuugJ2eQK4AjM/2Uu4eEXGPL1yDeaJ78vplITpCYmhChCS41xwEerMAKyUksWpdOXpOVgJrS8z+7Lu4gZ5M4Ei1j2b/Dk2pPqtG5bnbNXqzPCuRpnV5ykxgBLLh+H1mZR+KmqUeNJDRydDAheG0HtrwdjI4H4AE+8IwGq0/qLwbRGwbYdShKzvjdS+eJ3XAUNe+JYS8kReuLIP/jRk44PNxNcpQs1TsXTZLw11zbsJL11exIDTpAIGDfsiUt3Q85u8uX8k+q0HjSY2pc8iWzsTuv7u1j/sDFNIx89r+vgSpNYX7wvaqPxNu3rTte6RXZpAe3LJzr6Cl0c7MnIyOCfQ0f559BhzpwJoW/f3qxdvYKmTZu8U9vj3iGgX06aWDXNt1Pdu5K9NPYiCkVokQ6M8iIpSU2D+vUY4epGvbp12ed3gNBz5/nkkzI0qF8f0IaNr2hUkfr166FWq6lQoTyVjI0xMjLC0sKc63E3+M/0WbRuJeN/m7fh56uNHuzYbyDOgweydduOV/6dIqOiddZnOYM2Gr/w/K/wXINSea6QrsLLODh0IiDwmKgwSjpqtfqlm6WoCV89lP11d7GyfQCDJ+zhgbQLA53h/JqTNLQ34LhPIMeTpXzzhwEb56upod7C1DVS5gzSKox74euIsQxgQYVl2C0+wrZO/1KjhystTrsx2OsJfbbeos/piVTy9eVcopLjxg504yTHcaBp7DqON2hOwzURpJkFMPP3f3BZIiXGz5Bv/TpzdtgkFofDWck81rU9wUiPXUywXcf5Ku60iDvJmtiyDN8Q97xuHSm7v4/lm3OuxE/oyfm2Ra8wTKUmhJ47z6/zFxN0LBg9fX0+d+rH9P9MpVatmjx5kqwLKa73ySe6yMGgXd9Of/oUgBrVq+myJGo0Gu7cTQSgbFl96tapo6tzPe6Gzty2Zs1PMapYEYDHj5N0G+SGBgYoo65zPvJfAGzM62Ftpu3XpFZNKmRtUD989CErs4QAACAASURBVEhnVlu+fDmkJtq9BkEQiIm9ruuztqkUw6w1+fv3H/DosTbGV8UKFahVqyYAz54900UIBrh5K75IZxd5vbR/W/Qra/5ah0xmS88e3Xhw/wEDB/Rn/cbN3E64za4dmwGY9O14ANas/hNDAwPu339AbVNTQGuS/L9NW0m8d18XYuNiuII9vvuIiLjAH8t+y1OGVjI76tSprfv+WetWeZYb5z4GQRAY8tUXRWa9ZCyREPUe4eiLmo9WYSSp1cXsuJTO4+R0GtaVQk1TGsbXxLHbSX6e4MtljJkA8DCWW2adqa0HxKxjEQ4Ml8fmaqV2dQmG+hJQJ/Hg5knWn5My0DAdniajlkqpUcEQY9t2VLqsfIUcASzf5IBL/6yvptUw1jPGuIqKyEdQQ3KPa0+sGfuVMWWj4NZFBWfv3AO9F+pW7cW3E3wZPHwBXdVQ+xW9FRbHgk9w+Ig//16LIepKNE80yZQpU4ayBvq6F6kyNJRJ32sTWBkbSzgW8DzU+6QfphATo30xz5g2lQGfax04g46dYMasOQCYmkp1o1qAsW7fcjdRq0wW/DqX7t20G7EHDh7S5ctobm1Nw5bPl0hOKsOZM+0/AKz843c++6w1AH//vUcX+FBmZ8tfq/8EtP4fg3IkRNq0cS3NrJoCWh+R7I1+h86ddJZJj5OSctWxsDCnTm3Tt7+o78DrZlFjRo/Ufc7eaB7xzdA86zextACgYVa5bL4e9tVL7X7u1JfPnfq+Uo5XfX7x+/vOIt8FudxOlzyrNPDRKoyo6Cu0KlZzNgNa9x7J6tWebKh/kpjxU5kzpjnfcIHFNl7aIg1H4vGZL+67WlNbVY3hKwdjuHhhrla2bfLEgIN0dVzN0zN/UenTdGIUsdBsBH2arWfDcjX3FAZ83RcSbyg4yz0SURB2B2gAcI+OY93pptjMEQDFFjasieZ8ojtTv05jgWcEMUTjhzuTgNrN5LSWVIfYF+qmKti91pg53pPg50BiKFo6dWxPhQrlWfbHSnr36sGuv/eQmJjI40ePuXHjJnXr1qFTxw6EKU/lWd9759Y8jzv26Yljn555/nbo4MsZAwFcvhyMy5eDAcjIzGTR2h2kpWlnL82aWLJ42ssyjB41QpcXJSf6+vqvlPn7Sd/y/aRvXzpepXLlXHWGu44V422VYNRqdXGLkG8+2lhS8xf+hnFWpqzSSvjvco7YK/BoWUAN3vFl3ByYs8KJ6gXUZFGyafM2/AOD2OC1GoCw8+H4+wexy3s3TZs04fP+fXHs04tP8jBdLUzORkRx8NhZPq1amd6dWlO/dq0i7X+461hayexK9b3+oeIfEMSmLdt092xJ56P1wzCWSEp97t2GfVcyoMGby+WbynLGjpWXWqutF/elWrawweOHifxzwJd+fXtz5GgAdq3aM2fur4SeO19kcrW2tqS+aS06t2lR5MoCKOaZdOGRnY8+O5tlaeR90ukWBx+twpBIJMSrVMUtxnshaSynYeU3l8s3hlJsrKUYFmCTRUm8KiHPfakqlSvzef9+/LHsN9at9cRIYqRNkDT3lyKVr7xh8VxZiURSKOvkly9H5vKsznaEXOG5Rpe7Pvv4Cs81eK3b+FJZhSI017+8fs9Jdrmo6Cts3byeMmXK8NfqFYxwdctV7vSZEFZ4rmHd+v/pjq3wXMMKzzU6w4ecff57LSaX/NmBHgE0mie6ugXNq+7ZkspHqzDkcjuUynOlav1Q5PUolaF5ejnnpGULG76f9C2bNq5l8MDPi0gy0CQnU75c8SiMwrjXJ343GWeXr/nn0GFdjKvpM2frPnfu0guvdRtJvHePEaPcSElOYecub5xdvgbgt6XLdW0pQs+RkZGBIvS5OWu2AcCvC59bPsHz8Cr+/oFcuhSJTGaL85fDcpW5cfMmo8eOp5KxMcdPnGL7jr9JSLit8+R2+txZF4Zl5aq/uPrvNX78aQZyuR1Llv7BvXv32L7jb925jHH7P2pUr8a9e/f4duIPBXMBsyhNJrXwESuMbEevkHyGhxAp2URFX3krR8wqlSu/s0/Gu6B+koKhYd4pdAub506NxwqszQsXL+G315s/ly9h/dpVKBShlDUwYP3aVYx3H8Nvi35FGXqOnbt249TPEY8fJnLo4F4uX44E4OLFy1yLiUWt0QDazf3r1+N0I/mE27cBiIu7wYGDh4iJyW0dKADJKcmM+7/vXjIWqFunDhfDFZQtq4+pqQnp6encuhXPBq/VujhbYefDdeVHurqxdInWmKRj+3aMGD6M9Kfput+3bl5PevpTnj0TSE5OKbBrmO1QKcaSKiXI5XYEBBbcQyRSfAQEBOHQuVOJtAZ6mpFBWvrTYluSAujv5IjvXr8Ca0+t1lDJOPe1rlG9OjVrfQpAkyYWXLykVQ7SPOJXOfbpyfARY5gwyYOUFO1LOKf9TWKWuXJaWhqx1+OywtjnWHYSIDziImXL6mNj3TxPGQ0NDQkMCibuxk1q1vqU4a5j+dt7D245vOH19fUwLGdIRlaQydV/edHbcQANG+TeHExLS+Pevfs6v5eCYNPmbaVqdgEfucIY5z4G371+pX7z+2NHrVazacv2EpuQRv0khTJlymBoUDwzDNBG9I2MitYt6bwvti1b8Nvvy3nw4CGbtmyjXj2tl2ZvxwEAeK5ai32nDrRsYY3nqr+4cfNmrn2B+b/M5fixI6xfu0qnHOrXq8t49zGMdx+DNEdwxfHuY4i+clXnTwNQpgys+WsdHt9PfCk674WLlxj3f5OwtW3B/F/mamdD+/9hisd3/PLzbFatXqsLCZKRkUltUymz52p9WE6fCeHQwb08zXLiBK0nubm5GSv+WFJgm9TxqgQCAo+VOsu1j9YPA7SewU79HFnpuYaf5xZnysRYto2fQYyzJ9M6SYj3mcKU+8NYZB3OMq9T3MuAhs6DMN2wjv05avWZvJCGQUtZ/W865R4a0GTsJDyqBDDYxxTPmZ2pHrGZwfNh+qZepHotYPGpexiUs2SgxyQGJO9k8HzthqVxg3Z8M9adjo826+qm+c1g0tY69LAM5lDU8z6bDHej4YYgai+fTtcSYnu7afM2LCzMSuzUXvMkmfJvEbOqMMiOjjp9xmz+3rnlvWdiqz2XM33mbAY5D2HkiK/59NMaAHzWppU2Iu/SRTh01o6e3ceOYsjQkTx89EiX+CkndetqlU2ZHObO2dGAQZsHpEP7tniuWKbb2wBwdxtNnTq1uX37DjKZre5482ZWtJLL+Hr4aO7du4+f79/Ur1+PRYuX4j5+Iu5uoylTpgwAMpkt493H4B8QxMpVf+G9cytfunxNnTq1GTVyOCtX/cXUKT+wbPkK3MdPfKVPztsycZIHQ4d8WfoiZRdj4MMSwa14ldC6rb0QolAWrxw7RghWHgeFpIwoYXXPtsK8o4eFGW36CcvCBUF4GCDMc1kqHEsShMQ9EwWrcT5CoiAISeGbhImTfIRrGYKQGjRXsOrpJVw+t1T3u3BuqWBlvVQ4dWCyYDV0k7bc8QWCbZsFwpkzz8tdXj9YsJp3QkjNrvswQJjSRiZYWS8Vzudo57wgCIIQISyynih43y6uK5WbyKhooU27zsX+93sdl65eF5Zt9C5uMQRBEIQBg12EXxcsfnPBd2D4yLFCSEjJ/TuUFFasXC1069G3VEWpzeajXpIC7SxjvPsYJkyaXKwWU6ZtemFzOIDgEyfxxpUBlS+zO9mBTtZA5c5M2zqRji8MCiWN29HNJprlw0YyckUAqNSkA5zzxP2roQyerfVEjo8KBFsbGuqBoZkFrZNVxGuel3NfnUQfuWWWOa2aIyumo7Z9XbraCLb9PINJ40cy6feTxGcWwgXJJ9NnzMapX58SO7sAUD9JfquouIXJ8qW/4ePrh49vwe1nZFMcoTVKG9kzmZ/nzSqR+21v4qNXGKBd37WwMGP6zDnFJ0TdnnzVPZCZP3rB5+1oUs+CjsRy7Q6QpmC520KC7+SuEr5+KFMvWTN90zpWjZA9/8HWHc+tm9k1SxsPqUItC1DFowZQq0lEgnG55+UOzW/P/lk7CQc4sYyfoybhMfx1HoHWuEyby9Ll7tTYsIwjsa8pWohMnzkbAYEfpxSsqWNBo0lOoWIxmdS+iKnUhD+WLWb6zNkFrjTkcrtCj8hbmomKvsL0mXOYN2dWiR7gvA5RYWTxx9LF3IqPZ/rM2cUkgYSO3XqSltyA4d0soLoD305IYtG3M5g6cQbHpXKa1sxdw9LWCcmJnSz/fQZuvysxJI3H6S+3bOo0gwmJCxn540ImeazD9Gd3ulYAYgJZvWIh3/18AptR7bEEoAETpg+m4Wt3t2I5un4ZU4fP4EivkXQrSG/zfDJ95myO+gfx89z/Fn3nb0lyahqVJEbFLYYOucyOeXNmFYrSEMmbqOgrjHB1Y+rk7+nvVLh5NgqV4l4TK0kkJSUJAwa7CNNm/LdY+k8NmitYDd0p3Mp5MCNNSE19TaU3/Z6rgzQhNePd5Ssp7PHZJ7Rua18kGeQKgu37A4WgkPPFLcZLZF/HFZ5riluUD5o9PvsEK2uZsMen8LP4FTaiwniBW/EqoVuPvsKESR5Fuil1fm0PoU23EcLqc2lF1mdpZNqM/5YqZSEIgrDu74NC2OWrxS1GnkRGRQut29oL02b8t1RuwpZ05i/8rUQY1RQU4pLUC5hKTfDetYVb8fGMcHUrMh8NG9d/OH14HWNalozN0ZKGWq1mhKsbkVHRbFi3ulTF30lOTS1RS1I5sbQw58g/e7kVr2KQ85AC89P42ImKvsIg5yGEKJRsWLe61O5ZvIioMPJAIpHgvXMrFhbmDHIegn9AUHGL9EESePY8txMfvLGcQhnKIOchSCRGbPAqXcoC4ElyKsZGFd5csJiQSCRs8FrN0CEufDvRgwWLlogx1t4RtVrNylV/Mch5CA6dO+G9c2upu19fx0ebDyO/+AcEMW3GbFq3kjFvzsxSaQpX0sjIzGTd3wdR3dWmMe3Wzo52ts1eKpf98G3avI1xbqNLnVdsNv/9YyMzxg1DT6/kj8/iVQlMm/FfoqOvMmyoi2gq+xb47vVj/sIlWFiY8eOUHz4oRZFNyb+Di5kuDvYc+WcvgiDQvZdTgcbj+Vh5+FijUxYAgWfO829cfK4y2bOKEIWSv3duKbXKQpOcglGF8qVCWYB2SXaD12qWL12Ej88+evTqJ97zbyAg8BiDnIewYuUapk7+vlTOgvOLOMN4C/wDgliwcAnGxhKmTvm+ENYl73N0zkRW5wjF0efHZdT2mYjfQynp6RoMGg9h8oR2GPrPw13lxK7hFoSvmcS824Px9KhP8O+L8L6aSnqV9nhMG0mjc/NwP5iEaXo6aoMGfDN5Ih3v5SMEyNc/MzBpLcsP3wf9+vTx6ErSzCW5Q5P8uJnh1u92pv/9YyNl0EYdrVi+PE9SUvi0WmWqGVck8PAhzocqGe8+psTGh8ovqrv32R90htHOfYpblHfCx9ePlZ5rUGs0DBvqglM/x9IXzqIQyI5f5uu7D0HQBnccNtTlw1+BKNYt91JIUlKSsGLlaqF1W3ttKIQCtX64J3iPkwmLzgmCNgSHTFh0Tnus+58RgpARI2wdKhPc99zThghZEiEIUV5CX2uZYDXORzi1up9gO++EkJQhCNe2jhCshu4ULuyZKFj1XCmczz42zkdIzEcIkKRD0wUrl03C5exwIj29hMsZuUOTvA8BZ8KEXQePCX6Bp4WnGRlC2IVIYcavS4Xx//lFmLV8g7B6+z7huDJCuHv/0fte1GIlOvamsONAYHGL8d4c9Q8Uvhk5RrCylgnTZvz3g7H6eVsio6KFaTP+K1hZy4RvRo75IExl34aPOvjguyDJygM+bKgLKzzXMMLVDUsLc93oq7Do1rY56EFTW/g5VgUNgMwots3zpXZ7C2LQcCVcRetulkj0QGJpA/NV3B8IdG+PjR5gaQPzrxM/CrQhQBZqQ4CceLm/mKsBkHyfDdOiIVONZZV04h9CjQI6n86tWwDa6fzoMeNRKENx6ufIT+PHoG9YjmtxKq7dVHH01DnMG9ShhWUjmjauV0C9Fx1qTTIVSoiX9/vQxcGeLg72xKsS2LR5K99O9KCSsfZZKKlh5QsS373acCqRUdF0cbDn751bPthlp9chKox3RCKR8OOUHxjvPgYfXz9WrFzD/IVL6O/kyNAhLgU+bb91Ww0Y8vgRNLHMMtHctJDFzkvZZbWL4CPlqCaFa3fvAdVIS1KDVIoBZIUFaY5BkhqsLJCg0oYAsZ7C3gkqgvNQGNVr2YBZP6bP74nkzkm2nTamRQG9E/Kazs+bOyvXNatZrQptba148CiJC1evc+iEgtPnL9HCsjEtmjZG75PSsSeQ9CSZCuXLFbcYBYap1ER33/sHHGPFyjVMmzEbuUwbFsShc6cP4kUaFX0FpfIcCmUo/gFBSE1MGDbUheVLF33wyvF1iArjPZFIJAwb6sKwoS4olKFs2ryNHr360cXBHqd+jjh07lQg/RydM5GZCjgSOZJVUxvAYaBCTxaMb4dx0C5AnzYjFhIyzh3XRAdSD0cxZukUzOKmwOG5uEmU4K891hBPdCFAkpfl2Z9pr4l4HJnIyB8jaBgTwK2uixhgCO9jbKlQhupGajKZLe5uY94YJqFqZWM6ya1p1dyCsMh/OX3+MmfOX8amSWNaNGmEUYXy7yFR4ZM9k/rQkEgk9HdypL+Toza3Q0AQCmUo/9u0lTJlytDFoRNymR0ymV2p2PNQq9UEBB5DodTm+Y5XJeDQWXsO7m6jPwglWBCIm96FQLwqAV/fffxv8zYqGUtwcur7HiOv++we35OYUQq+tQDD/JjzJ6dDBa0D4D2fSdjHunJxrIXu2FuRlk6avgGGem9fFZ6P1DZt3srjJDVdHOwZ5z7mnV8iTzMyCbt8lXOXr5KSmkYHmTWyZuLDXJLIHpUrlKFER1/F0sIcS0tzpFIplhbmGEskufJXFDVR0VdQqRKy/lcRFXWFqOgrupwqcpldqcuEV1SICqOQ8fH1IyAwiBBFKGXKlKGVXHtDdu7cKZ8vTa3l1K3+72aRdO9wtjVV3mksC5p4VQJKZWjWS+MYarUah86dcOhsT9Omlvxv0xbmzSmYZFXHQy9wXBFBwzomtLFpSv3atbJ+ieLA2jAu5yjbtLUMoythhD3K5KlhNXr0siLlaDCR9ez5pg2E7Agisp41TeIiuNeyL2a3jnI4sRJW3Ca5pQu9a0ewd8clHjax55s2WX+3K/4sPvkIiV4mGRhg1qYr3c3Lk3juELvDNGR8kol+FTMG9GuJ/qUgdivvowGqN2lLb5R4xZng+kVdru4I4l5LF3rjz+JgcOoIvmFGuH4hI+PkPjZGSnAaZcrVtRHcLKdHRmYm5epYM8TBjIyo4+w4fVfbbqOWDOyYScDaKKp/3p9W1bTXgY72VA/L6kN3Hh3pV/EqB8ITSEjNukYdXehdwLpXrVbjH3BM+2KOvkKSWo1SeQ7QLm9JpVIsLc0xzVImObGwMHvr5Z/strPJ7lOhCEWlUukiN1hYmOn6lEqlyOWlYyZU3IhLUoVM9rQdtDdvQEAQRwMCmb/wN0ylJlnrvvbIZbaveDiq0XXm5nfuv3r36ex659pvRq1Wo8ha61UoQnON1JYvXZTL9FitVhMSol22Kwhz2Q52zbFsUJegs+fZtPcIbWya0qZFEyQVLek9yhJ58E5WxJow/pu2PDqwjS3PLPEY0ZKHATvx8rmAXD8dTVZ039RU7efU1HTUt5QciNTDYZQlD7ffQP00k9hjEZzTZFIjZzTgp2loNNDqq4G0itvH/CPB1KlVj9jLKZh1H4hDtTA2ekVx+hI8DE6gchdnXGtGsMU7jIj66WhS08nI6lv9FCANTQpkPAVNqgEZD5XsPf8YzTMDMkhHnZICTXozvmUcW9afxbfSIzSnEjDpPZDeJhFsWX+Ww7Wak5KSjlEmQDrqlHR4Ckap6S+cx3UOK+LQtx+KR/NL7PgjLEuGgiV76epF4lUJutF9vErF0YBAjgYEEhV1BY1G88r2spWMWq0m6g3pUrNnMZYW5shltsjlo5FKpaJieA9EhVGEWFqYY2lhzjiyXp4K7Uh8/oLfUCUkYGlhjkQi0Y12TKXSdxplFQZqtZro6KvEZ43SoqOvkJSkRqEMRWqiVXzubqNpJbd7pbwSiYSf581iwqTJODjYF8iDW6NqJQb36sSlf69zO/EBkop5rdndJSExkxoNTDH6RA8jk0oQmUnFxnokXgvjVIUKXE15XjoyMo46dn1pbphGMEDCcfbGGVCjfMrLTRt/SpNqepTLrEaNZwkkptajeaPbBB/bybK0TNRkUu72XWKfVeULSwNAxpBRkBi8k8DXnlk6YUdjSDUqD0nZx8rTxKwGVMigjtElLty6QyKZaM7uwwtILadHxgMN5Ugh2GcbIZ9kkgqYZVfPdR41aCqNZX/4AbzjMrkN1HpZiEJDe3+b5MuXKVu5vAqJRCLuMRQRosIoJiQSic5U8ccpP+geCoUilPh4FSEKZa7Rllxmh7GxBIsspWOc46VskvXwvSvxqgQScgRZTMoavalUKuLjtWu9arUaIyMj3fKBhbkZFhbmL1k3vQltLoaZBT7Ks2pcH6vG9V/xa2WMKoBa8xgwITUlHcpWoF4vZ35UxXDzaSYawziuZpVuYlGP26FHCW7YAdAqELN2balz4RQXXmw6JYVHz6DGk3RSMMDobjBeyhQcvnJmyCdnWb35KlSqjAm3SLwLTSpF4L01jurSN5xQ0i1OZdTDtVUyXrpQZuk8epQJ1TVonkLlysZk3MhA3msgbaskcCHgX/QbVSBCUZ6O/Z3p+GkEO/4I0zWZ+zwkmFlWRT9IQ5UODUmNffw2l7tIMX3P+1uk4BAVRgnhdSMuhTKUpCQ10dFXiIqKJkShRBWfgCrh9ZF0X9XW65CamCA1NcE4a9Qms7NjnKmJbvZTEBT9hmJ5bDtYcmHvWVbsiiLjbgrN7bvSAAOQWmJGAgk5rXRNOtDv6TY2Ho2iPUA1S5xsjTj3krYAnibgvXUfVZIfILHtgm3DRCKPRRB29ABXNY9J/ASM9M1xaBzHjr3eXC2bwsMKljQvHwMpCRz2e4QmBVIvHMabx0ClrIb1sO3UgTpph3J0lsm5IB/UISnEljNjbAdrHqUeYIe3N7EV0olNqcbANpXyEDKLnOeREYPv8UQkLbrjUC+RHe93gUU+EsRN7w+MvBRCUpIaY+OXX/YFqQTeheyIqEUpQ0ayBioYFcxI6dIB/quUMP7LllQpa4S+TulkkpGcjv6LJr/PUkh9akC5dzI5i2DHH1GYDO5LqyovtPFe7YqI5B9xhvGBUZri7k+bMRtpliNYUaFfoQDzUpQ1xKicAfqGLyogvZeVBcAn5Xl3p28DJOUNKFc2jzbeq10RkfwjzjBEio3sJDMfa5gFEZHSRumIryDyQWJpYc44t9EoFGKWNxGR0oA4wxARERERyRfiDENEREREJF+ICkOkRBAVfYUFi5YUtxgiIiKvQbSSemcyeXghj/hAF7XewJJKtXHo0ZrqcadeiNfjjPzBAXZGppBBeT7rZQvHgrVxfvLa973iz+LguwCUN6qGvL09ZrcO4PXYkv9rcJstJx/RvKMJkYExJOoqfZoVeyiK6p/3xUzlz86z91FjgHlrK2pdDnshhpI9Q2rH4x10ldtPoVwNK5x7W0OID16PLfHoYcnDMz54xZkwuF4Cux5b4tGjNpF+B9j/pB6uXcujCLhKxOOsuBl1WuLRw/Ktrqap1IQ9PvuQ2dmKgd9EREoo4gzjXUkKY29wApU/68/E/g3hYhgRmnQ01a3wGNWblpkxHFCe4XBQHPo2zniMsqJOSjrq1Biu3qvAZ7364mD8gANnrueIJZQHT9PQlK3NN6Oc6V3lLgfOXiItPR1Nym2Cj8dRrmUPWknS0aTo0aqfCx79alM+JS0r9lA6qQ/D2Bt8F5OOznj0qEZsUAT/Jr8YQ+kmB/wukWrRm4nftKbBnTB2nn1ARno6mhRtwYx0beyjtOxj/57CNzYFTWo6V46HcUrfDI9RLvSp/rzO2yCRSBjvPoaFi5bo/DNERERKFuIM4125+Yr4QPERLF4bQWqKHtYyCxo8vJE7Xo+eGW0dK3PObx/7VXqYdagJ4f8SG+KNV2gmqQaf0r2fPWY5QyJp4ti4No7UNKhjVwu99KsQH8epKpZ4tCgPd18lZArBR6PIeFaVVuZ6QFVqEceTCi/EUEpNIuEpqCOP4nUVMj4xQJ10F8oD8REsXnsJ0tOhYlazwgMOH7uLxNiAVKBW/aqUC7nKDr/baO4D1d7tkg4b6oKlZfE6E4p8fLwYJy07JM6LvClKQnZgxJxkh/MBaCWzw0hiVKpNyEWF8a7UekV8IFNrPPpbcfPQTrxOXaOV3QvxelJjiAzPpEFvZ1yDd7Ii4jrVgQatBvKFVRwBXkGcuvwYM1mOEA9G9fjmmw5IlD7MPxtGXHNAWo+2D6LYcrIuY81eISPl6Whfm8gjWXKW1fCI8jTp2p+v0nLEUDIsT2X0MGnTn37m6cQeP0tifROIjcg6H2sSg3eyIjar2VtxnKplhWvNGLxioYJ5PcyUYdwzaok8LYGb73FZS5PjoUjp4sU8GPHxCTolkDNOmqnUBKmJNnaVVCrF1DQ7jtVoXVvZ92legRGzw/joEARClKH4BwQSHa2NWFaSA42+DlFhvCvVrPOOD3QrBm+fGGJVmdRpJnDsxXg9hgYknvfH90IUVZJTMLGqSfl/44m6cJgtoXeJxYSBTV+IB5SSwGG/fTy6ocGoYUtqcwnKVKV7p3TmHwpmR8wzEg0rYVIJeDGGXNUsOff7EMtj1A1a0qqaAeXIEUOpTH0c5IlsPOrNlnCITdSjo9lrPKI/MaJ3VxnlLsQAGVw5FMEFAzPG2zfkns/xArm88aoE2ZevsgAAIABJREFUMeCcyHuRV26WnHkwZHZ2jHMf/V6DlFcFRnxxH25cjs/ZwTzzCjRa0lPdin4Y78u7xvFJ05CRK/5QIfNUQypGlCv7ukLppCZDuXfJzFfAdO/ZT5f69q24EcjyM9UZ4dyc/IzV1GG7WP+wHRMcXh8+Nr/lRIqXnGlWc+Zm6eJgX+JnrzlT3eZMuObQuVOJSXUrKgyREolCGcqESZP5e+eWt3tQHsVy9oYhLayl5Ce8ki6F7Xevz0iY33IiRU9A4DF89/rhHxCky82iVRKdSvwSz+vIVnz+gUG6VLcODvYMG/JlsZ2XqDBESizzF/725vzKmfeJDLmHcT24FW9AU8OTjPQxxbN/PO4rIzBFRXySlNbjpuLRvhr3FJtZ5HWKexnQ0Hk6Y5MXYh/rSpCVry6VrS6trbMB235ehl+8AZWIJdhmHhcnVCN4+VJWX9KARMaEaSNpbRjL2X8NqV05nnt6NtjULf4Z2oeOWq1m05bt+PruQxC0mS0dHOxL5DJOQZCd6tZn7z6UynP0d3LEqZ9jkc+aRLNakbci8toNAs+e57H6SaH39eOUH97okxG5wZ1JJ6MInu/O0TRTJJn3ibyTpFUkp6Hb/7N33mFNXe8D/yAKqAQXKsOFVUBFUSHuwXBUS8VatSrgrAr4a7V1VOtedVu1XwGhjgqKswXEOkGs1pVgxVEJLrQmoCIqwYGV8vsjJIKighIS9H6eh4ebm3PPOfcmOe8573nHvDDW+cCG+ZFcVB5i1dfbsfYPYO3SfrBhOydy/WN4lMbFe/mPE9YMZ2kFL9atnc4nFmma9vzv9yBoTQBzWx1lxKK9KCvA1eX92HAimTU+k9h9S3vP5EMnUZbEtBmzadvBjVMSKX6+o9i/Nwp/v1HvrbCA56luN6xdw749UeTkwFdjJ9C3vxeRUdEl1g9BYAgUif9y/uN80jWCt0Vz8Nhp0h/o0GfiWhgzVtXjc7NDzE/zY2CHF2b2TcQ0MgeRhTUolDy9fJZfH7nRuRlQ2ZWpm8fSxuRVlT/gyuWntG5ij7FhNVq3EQMPuJqgQHQpknlTp7PmuAmN5GlcNbRh4ERvDqySUf9TBTOW7iVNu3f+wREZFc2wEb707e9FTg7s2LaJDWvXFJgv/H3H2sqS+XNncmBvFJ69PFgdEEzbDm4EBIVo3YdJsJJ6DS/aZwMFRlZV5Hm/IApKVJTXPludclWdtF6fadKgHrfv3ufZs2xupt5Bek5GiyYNaNm4IdWrVtZKmxJpPMdO/oWnpwf1auXJPF3HjYGdAzlYfhwDr+3h5LV+1M97YRUjzPK+rm1HJ/Zy5RY4Vpawauwh6rfL8/6jDLIA+TUJMBhzK7hyOw2oxp3b14BKmNcBMwc/Fo2yI0u2l1/ldtTnKX/sCsNs2DjMfj/LwJlumGvlSXx4SKTxLFq8nIwMJT7eA1m1Ykmp3pcoTkQikcYwJCY2jtBN4YSGhavOaWmf44Pfw3hRKMhkSWRkKF9pn50Xsfhl/aE6Ib3adC4vL9lno1piZyiVSKWn812vdmDTV2efC5eTMatYkezsbOJOJXAz9Q4tmzSkZeOGWFSvWqxt7Tl0lJPnrwDQtkVjuncQP3/z/jk2/JhA/d4ijhwzY3S7s7j8XI+4L5NV/1d7Yv7XShyGwqYEP4zW+jJ8nzWdqkq4avUd85tF0ufaCM73TKDf0HWYtbHnyokE0voHcf4LOeMGroNu9bi67RBXh67j/BdpzBi3CLmjGxyOxfzrdSxqIyc8+in1zaUcfPYxE3rbFWrDXeDVyBUpTJs+m4uJMgbnDoqCoHgzEmk8CxcvI1OZib/fKDx7Fe8K7IMUGC+a3r0oFOzsbDEzE5X4hpLaCSgxUSVsTknjNQJNJBLh7tYZsbOTXpjYKR8+QvnwMXfvZ9DU1oaExCucOpuI4vZdGjeoS22L6tS2rIF1zXefa2/4dR/J8lTN6wkj+mNaUEa7wpL9lKxnRhgXMKpnPQLjCi+ee4rxi6bGj56CHpgfv4+EbdrC6sBg3Fw7M3nSt4KgeAsiIqNZuHgZrVs5M2/OjGJ7hh+EwJBKT3MqV0BIpPH5TO/Unpb6jsr5SGWjLZNdwtrKErdc23Kxc0ud/KhOJlwk8eoNhnzWXXPuTvp9rt1M5eo/KVxKvkl5E2PqWdekrrUFdSxrUNO8SqHqTrlzl6v/pHDtn1Su3FCQw/Ov6Yi+PahtWaPY70dAt6hXFXK5gvnzZuq934S+o1QqmTp9NhLpaebNmVEsQT3fS4GhVCqJPXSY2EOHiYmNw9TUlFa5AsLNzaVUCIjXoVQqOZUr/GJjD6NIScHezhYf74G4uZac7fmTrKcEbI7CtXVzWjRu8NL7z7KzufpPCknX/uG64jZ37z/AqFw5LMxfr7JKuXOXrKf/IqpYgYb1rLE0N+fCZVVcEnEzO5o0qKeV+xHQHYmyJIaN8BVWFVogJjaOqdNn08XdhXlzZr5TXe+VwEiUJRG2KZyY2MOITE3x8R6IWOykd/r/4kauSEEiiSd002YUilTc3Trj7TWwRO475vhprv6Twsj+nxSq/N37GdxJf0DavfvcSX9A5sPHVChvTMUK5alY3kR1XN6EKmaiV65GEmVJ7/1n+iERERnNtBmzmTdn5gdp9VQSJMqSmDp9FrWsrd9JRVXqBYZSqSQyajcRkbu4KVfg7uZCb8+Sd2jRFxJlSYSGhRMTG0ctayutrzrS7j0gMDyKnp1a4+RQMoN4m/auzJ87U8ib8R6g1rX/tHLpB/ubLSmUSiVfjZtApjKT9WuD3mpMKLUCQyKNJzIqmojIaOzsGuLjNajUhwIoTpRKJRGR0YSGhaPMzMTdrTN+vqO0oo77df8R/n2WzRc9S2YADw0LJyAohP17IoXPuxSjFhYb1q0RVowlhFKpZOiI0RhgwI5tm4p8fakTGBJpPAGBIVxMlNHb04Penp8KX7Y3IJHGExEZTWRUNL09PYpdcJyVXWXvH6eYNHJAsdX5JqZOn63KnyF89qUSiTSeYSN8Wb82SFhZlDBqodHI3q7IexqlRmDkFRSCXfbbIVeksGjxMiTS08Xq3PP4SRZLft7K4N7d8jvWCQgUgFKppFsPT/x9RxY9GrFAsaBUKun6cS/G+I0q0meg9wJDrkhh8ZLlnDwlFQRFMSGRxrM6MJgURQqTJn5bLHsBW3YfoqZ5FVxbNy+GHgq8z4z9ZiIPMjLYsHaNrrvyQRMTG8e0GXOKFBFar2NJBQSF5MaOyWHn9s34+40ShEUxIHZ2YsPaNXh7DWTq9NmM/WbiO8egsatfm+vyko+6FxoWTkBgcIm3K/B2SKTxnDwl5acVS3XdlQ8edzcX3Fw7F+n3o5cCQ65IoW9/LyIidrFqxRJWrVha6n0n9BEf74Hs3L6ZnJwc+vb3IvGFsCVFwd6mdj5v7JLC3t6W0E1bXhvLS0B/CAgMobenhzDx0xP8/UYRGRVd6N+P3gmMmNg4+vb3ws7Olp3bN+l0Qyz+9F9cuXrtzQVLMdZWlqxasRTPXh4MG+FLROTbhUoub2KMmWlF7t7PKOYevh61p/uixctKtF2BoiNXqHJo+3gP0nVXBHKxtrLEs5cHoWGbC1Ver6LVLlqynN8idjF50nidOvBIJPEM+9KXxo0bUbdObfbs3U9czF7MzavprE/axt9vFHZ2tkydPhvgrZ5/9aqVuHvvAdUqm725cDEyf+5MMpSZJdqmQNGJjY3D2bmloC3QM9xcO7N4yXImTxr/xrJ6IzCmzZjNwZg4vbDJnjF7Hut/DtJEo23SpBG/Re5i5IihjJ84RVOufn0bxviNYnVgMDt3RtC1ixtTJk8AyFcOYNmSBQQEhSB2aolY7MSu6N85f+EilSrlH1zFTi05JY1njN8oLd/ly7i7uWBtbcXQ4aOBoguNapXNuKuD/BgikUhQcZQCJNJ43F0Lb2AhkcQjiT/90nl/35HF2a0PnlZiJ+SKFDIyMjAze/1kTy9UUvokLO7du8ft23fyhS4fOtibkSOGArBv/0G6dXWnfn0bAP44cpTAoBCCAlby9N+njPT9P8113bq6062rO/v2HwTAJDc86sOHj7h85SoAtg0b8FF9G9au+4WPcusMDArR/o2+Ans7WzasW8PCxcuKrJ4yr1KpxFVSL6IOSy+gf8QeOoy9fdF+3xJJPB/Vt6HBR/Vp0dyRXdG/a6l3Hy4ikQg7u4ZkZLx5sqdzgRERGc3BmDh2bt+sc2EBkHrrNjb16r62TPduXTTHe/ephEGffoPYvuM3jh8/+cqyj5884Vl2NlOmzaRxI3sAuri70r1bFypXrkT3bl00gurrbybSul3nAhM2aRt7O1vmz53JoiXLi7QRXq2yGXfv6U5gyBUpDBvhKwgNPeZtVoLdu3WhW1d32rZpRbly5QAYNsIXB0cxDo5ihg5/vhqfPfcHWorb01LcjsN/HNWU7ejSDQdHsSadad7rt27b8dK5r8epNAWrA4NZnWtFtG37Tr4aO56AoBC69+iFg6OY7j16ERAUwrARvq/sv4OjmHYd3ej1WX9NuYCgED7rOxAHRzEjR6smmRtDN2va9/Dsq5lUBgSF0MK5HeLWnTSTz337D9JS3J6en/bR1Pm6PrwJkUjEzZvyN5bTqcBQ5+f9aaX+WEHZ1KuLq2tnkpOva85FRO5iU/jWAst/VN+GKZMncD5BovkDUChSMDF5Of9nWloa3bu6U6lSJcqVe64RrFw5f7a6VT8uITjwfwz78u2/BO+Cu5sLnr0+YVrunkZhqF61EnfvP9Bir16PtZUl/r4jWbR4uc76IPB63nVSWLas6jfz6PEjpk6ZxPkECXa2tixcvAyJJB5zc3NOS/5k+9ZNmkFfIo3nSNx+Qtb8j6nTZ5N8/QaJsiTN73Xu/EWAKgtmwE8/cj5BQrly5TSCAuDRo0fMmbeQa9eS8fcdyb49UQDs2xNVKBXZsSOxRP22jcqVK2nObVi7hvMJEo6fUE0y7z94wIAv+nI+QUL/vn1YtnwlcoWCM2fO8pf0GJKTfzB95lzN9a4unfh916/56nxbzAopyHW6hzF23AT8fUfqVWgAExMT7O1sGeA1lKFDvMjO/o/AoBB+j/6V2XN/oN4Lq49atawZP3EKtg0acOnKFe7ff0DdOrU5d/4C5y/8zfkLfwOwZatqFvP3xUS+m/gtEkk8RkbPE/C8+IGtDgzWZOHTFZMnjafbx72IiIwu1H6GmWlFlA8fk5OTg4GBQQn08GV8vAeSKEtCrkjRm0mIQPGhnmRVKF+BgQP6AapVekBQiCZDJagmctnZ2YDKkq6jSzfq29TjfIIEiUSVmMzBUZyv7tu379CpUwdApU7efyCG+vVtOHv2PF6DR7A5bD2z5/5QYL8ePX6kqa97ty4sW7KgwHJZWU9V5R89on0n93zvGRgYaMbCwT6DiDt8hIjIaBwdm2rKNGnc6CWtg6bOPH1o3UrM2pCAgh9iAWQU0g9LZyuMiMhocnJU1jn6hrubCz8uXYhIJKJa1aps3byROrVr065tG6IjVQN/K2cnWjk70b1bF47E7efK1WvUrlULf9+R7NgZgV+eWYef70i2bt9JK2cnhvh4ac63bd1Kc5x3lqJ+Jl6DvtCsWHSFv98oAoMK79hT1rAMz7L/02KPXo9IJBL8dvSYd1UXqlVSgGY/42DMIZo2bUKHdm25mCjTvG+YuxpRrzB+WR9M9x6eWNeywszMTLPCmPDtWADKGJbht8hdAPz6WxQd2qsSviecPYuJsTHNmjpgbFRw8t07d9I09anVRgXx9GkWANt3/Mqmjevy/b4NDQ3ZfyAGgN2/7yUnJ4d+n/fmah7T/tOn/0IsduLC3xcxNTXNV2fePjzJelJkdbaR8ZszSOpshREYFKyXwkJN27atadu2db5zXbu4aY7zbopXqVKFAV/0zffei8tUAwODfNe8mA8872t9sgLp7elBQGBwoVcZhoaGZGdnU66sYQn0TqA0oR7g3oVyZZ8LjBMnJVy9lkza3bt8N+lbalSvzmj/r1ixajVlyxqyeMFz9Y2L+8eYV6tG376fqTJuOrfEwVGMjU09enzcDYCyhmWZPmMO02fMoWbNGoidvyNy124yMx8SvmkDAMZ58vrm1Yykp9/Lt8LIS95y2bmTqa5d3AgKWYtRuXK0bdOagFxDl4sXZawOWIM0/i+GDPaiRo0a1K9vg3PrjpQxKMPiRfORSOJZt34jGzeE5Kszbx/g5THmdaQoUqhRvfqbC+bogFMSaU7rdi66aFrgLViwaGnOV2PHF6rskp+35igfPtJyjwrHgkVLcw7GHNJ1NwRy+X7arJwFi5YWS11Dh48ulnq0XWdRWB0YnBN76HCJt3tTrshp0sw55/GTJ28sqxOVVExsnJD8phTR2/NTJIXcTzE0LKOZ8egaezs7ps2Y885xsgSKB7GzU7HtyxVl9qzLOouKacWKJd6mRBKPnV1Djdn/69CJwEiUJeHm2lkXTQu8BfZ2tiiVykKZ2KpVUvpAb08P7OwaEhoWruuuCKAakBNlSe8Us0yNNtS2ulYF+/uO1InQioyKpnevTwtVVicCQya7hJlZ8Xrmjvb7GgdHMV+OHkPc4SMAGptmr8HD85VdHRjM7Lk/MH3mHI3pXEBQCEeOHtOUkUjjNXpFtS12XpvsvOfzbnIFBIVo/o4c+ZMjR49p6pFIntcZEbmL7j16MeX7GfmuffH4xXNHjvypadutS08WLHwe9fNFqwtf/685GHOocA/wDZiamhZqpq7rTe8X+WnFUiHngp7wPG6RIMD1BYk0XpOMrjDoRGAolUqsrKyKrb6z585TvXo1zidIaNHckb//vsjhP44yauRwzidIsKhZM9+g/vDhQ9q0bkWTxo2JiormytVrPMx8yNlz5wusf936jdjb2dLMoQm7f98LqIRRxw7t6N+vD+MnTkGuUAAQEBjMR/VtEOVu8JkYG/Pv06f56rt3/z7TZsxh2dKFmJQ30WxUHci1kMh7rLZ0SJQlQW7qkld5l2dmPmTlqtUAXLhwkaN/Hn+Hp5qfwnro6tMKA4SwIfqGq2snIqOii2WVIfDuBASGMLgIOYZ0ZlZbnHrlZk0dmDdnJr37fEFgUAiNGtnTuVMHja31i2ZumZkPGT9xCvN+WIRckcJH9W3IfPiQwKAQHBzFTJ85l5w8eaUqV66Eu5sLHTu2xzjXd6Js2bI0a+pAdXNz5s2Zkc+ErXu3LmTlmroBhKzdgIOjWOOEd/CgatY/YNAQtu/4TVPu0uUrmlXRpctX8vX5l42bqJir33yVd7mxsREha1XWHFu37cDauviEckohwx/r2wojL4IHuO64d/8+i5Ys5/ups2jZojmTp0wX9pZ0TEBgMHK5okgrcJ0IDCtLS618WSJ+3Yq31wDOX/ibSZOncenyFdavDaJf38+oUuW5J/Xjx49ZtmQB5xMkNPioPsePnyQr6wl+viM5nyDh3Lnz/Jdn0Mvrha22VS6TxzGtfPny+QQMwNOn/2qO+/TuxfkECet/DuJu2l0sLGrySc+PX/IOr1y5kuZ1XlO8DRvDcOnckae5K5VXeZdXrlQZZ+eWXLl6jV8joqhdy/qdn6mawsbLVz0G/UviKJHG8/W4ifnu4+HDh9y6fZsnT7Jec6XAu7J12w4+7zuIu3fTCQ78iY0bQjAsa8iiJYJHvq5IlCUREBTC/Hkzi7QC143AsLZELi++hDeXLl3Ge8gIJJJ4zMzMqFqlMnXr1qGFYzMu/H2RypUq8ddfCfmuuXzlKqsDg7l85Wo+fwv1ubwCIK8XttpxZ8CAfmz4JQyJJJ6Zs+fRrFlTvp82K99Ab1BG9XgtLPPnue7YoR2XLl9h9twf2L7jN00MmLp167x0bwYGBhw/fpLu3brw77NnGJQpQ61a1ixYuJTVgcFsDN2s2eeoWrUK3477ivETJjN1yiRq165FmTLv/hGrB9nChHW4r8ykYvmXQ6LoGnXejLyhTp49y8a96yfs239Ahz17fzlxUsLQEaOJ3r2XiRPGsXjhPJo3bwbA/LmzOBgT99b5VwTenkRZEsNG+L5VlA3DWbNmzdJSv16JIjeRitph5l2pVq0qFSpUoHx5E3p83I0WLZrTSuxE9erVMTMV0eczT7KynlKndi2AfOqeqVMmUa1qVWRJlzXnNqxdQ2rqLaytLLG2ttL8B6hlbY21tRXt27VFkZJCauotZk6fgpWVJc+ePWP8t1+rKsmBsoYq5zX19QpFCg0afIS1tRXubi7IFSk8ycri6//zo0KFCtSpVUvTjvqaP478yYTx46hcqZKmzk6dOvB5n95IpPFYWlkyOHdJWbdOHVq2aM68HxYTuHoFFStUwNjI6J1VU7Gxh5ErFG9MfJOd/R8Hj8Xj3q4lhob657jXoX1bjv55XPO9MzEx5u+LiTRr6qCJPizw9qQ/UJKTk0NKago/rvwfIWvX08ujJ99PmUij3GCbaszNq9GhQzsmTPoec3PzIkexFXg7lEolfft74+bauVD5L17EIOdFXUoJkChLom9/L44fjRU2JEsBX4+bgL2d7Rs98+/ezyAwPIppft4l1LN3Z+mylVStWoXhwwbruiulmn1HJBw/o4qb9rf0BE1t6+E1sP8bBXGiLImhw0cz2GeQzs1a33fUKws3187MnzvzrerQiUrK3s5WsI8vJcgVKcQeOoyn55vttB8oMzGtUL4EelU0Fi/98ZXvNW3ahAt/XyzB3rx/JN9M1QgLAOf2HZk+9btCrdrU+Vc2hm5m2ozZwka4loiIjGbYCF98vAa8tbAAHVpJTZ40ntBNW4QviJ4TEBiMZy+PQgXzu5/xUO/2L/46k8CNG//gNXg4t27d1pxX581o7tiMMwlnddjD0s2FCxcJClqT50wO5Ys4abC3s+XA3iguJsoYNsJXMLktRpRKJYuWLGfh4mV8N/Hbd47fpzOBIXZ2ws6uYamwlLiTlsbqwGBNohWA/QdiWB0YzJU8kSQL4kXHPlBF2dzwS5jmdVLSJVYHBuskWdLrSJQlERkVXegv2YPMh3q3wmjR3JHZM6fR1KEJHp59NZ+F2LklixYvp2bNGjzNekp6+j0d97R0kZ6ezv9WBzHQeyiWNczp7OwAgFE5Izxc2hS5PpFIxM5tm3Fz7Uzf/l75HFYF3g6JNJ6+/b04JZGyc/vmIqdcLgidbHqrEYudWbhomV5veqWkpDJt5hwsLGqyfedvqkis5cry46r/UbduHcZPnILY2QmFIoXIXbupWrUqI0ePwbVzJ+bNX0QZwzLs/n0vJ05K6N6tC25de9K4kT1/X7xIZNRuevbozijfr7Cxqcf8BUv4999/aaUHMW2USiXDR/ji4zWw0HG/EhKvYFyuHHb1a2u5d0WjQoXydGjfjooVKvDT/4JIu3uXsV/58/PaXwC4m57ORx/Vp1YxmiG/z/z6WySz5i7AwMCA2bOm4dnLA5vaVjjY2nAu6RqfvIXAUCMWO+Hm5sLP6zawbt0v2NvbYl2MTr4fAnJFCouXLGfR4uX4eA1k6eIfCp0g6U3oVGCYiUQ4OjZl7DcTcXNzwdy8mq668koSE2U4O7Xk3r17XL58hY4d22NkZMRnvT+ljIEBxsbGGnPTHb/+xsmTEtaGBKBUKqlTuzYOTRrRorkjR/88TosWjrRv24YHGRn8889NypUrR5XKlenYoT3ly5vQtk0rlMpMvRAYkyZPo5yREfPnFv7rceLMRcyrVqZ+bf3MRdGsqQMNG37E7t172X8wlu8nT6RbV3f+OpNAGQMDmjVz0HUX9ZoTJ06xaMly/jx2At9RIxjjPxqLmjU171cob4L8dhomRkZUrfT2A5S5eTW+6Pc5SqWShYtV7dnb2+rl+KBPKJVK1q7fyLTpszGvVo2gwJ+KPcirznN6i52dmDdnJsNG+BITG6fr7ryEWOyEs3NLKlepzO07aZQtW5abcjk9PfoQtmlrPt3+ndt3UCgUGBsbU6uWNd9Pm8U3479j95695JBD3Tq1cXZuSaVKZtyUy/nvv/+oW7cOX42bQMjP65ElXdLhnT6nb38vpPGn+X7yxCJdlyxPpZaFuZZ6VTy0a9uGH5ctokrlykz67nuOHPkTm3p1X/Ks/9DYt/8grl165EvWoyb5+g0WLFzKmK+/oVlTB8LD1vNx964F1lPHsgYXr9wolj75+43iwN4o7Owa0re/F2O/mSh46xeAXJFCQFAI3Xp4ckoiZdWKJVpLIqbTFK1q1Lq1sd9MVIX4KAZdW3FxKO4Pjh0/wdQpk0i8KOP4iZOkp99j3pwZ9Pb8FAdHMcFBzShXthwdO7anbp06LFi4lH79+mBkbER05A6WLl/J3xdl3Lt/n46du3I+QYKlhQWj/P6PAf37Urt2LbaFb2T6zDk6NzOeNmM2T//9F8dmTenTdyArf1xSqFnK5euqBPIf1dZ/9UG1alX5Yd4sNvwSxjfjv2OM/2guXbr85gtR7etkKjPznTtVwCCmUCgKjJdmbWX5korFzq6hTj/3ffsPMn7iFIYO9mbFqtWsWqEKaPn06VM2b9nOps1baCV2ZsfWTdjY1HttXXWsahJz/C88XN9eLZUXkUjE5Enj8fEeRGjYZr4aO4FKZiL8/Ubh5tpZ578XXSKRxhMZFU1EZDRurp2ZN2eG1tNG6IXAgOdCY+HiZciSkvhu4rc67pEKV5dOHD9xUhMgcP7cmVhZWTJshC/TZsxh4Q9zOZNwDrFTS6pWrYqP90ACgkLYfyCG6ubmODiK6dSxPe6unbl86QqTJ43X1DV0iDcNGtTn7t27ODiKmTn9e+6kpenkPpVKJV+Pm0iGMoNNG9ciEomQSOMLHSTy6j8pWFSvStlSlGlv6BBvbG0bsHT5Kv7556bmvFyRQooiJTc3uILExCQUCkW+sCKmpqYF7rupc0pbWVpqgkXKFSma4JRqlEolMln+FaXY2Qlra0usrKywt7PAM+P9AAAgAElEQVTFTCTC2bllsd1vQaiFxfqfg6hnU5dPe/Xlz2MnyMzMJHzLNv599owZ06bQsUO7QtVnWb0qVSuZkixPpZ61xZsvKCTWVpZMnjSeyZPGExEZzcawzSxcvBx3t874+Y76YFLyKpVKYg8dJiAwmAcZSnp7erBvT1SJ3b9OHPdeR6IsianTZ2GAASuF3MwlQqIsibHjJmBnZ8v8ua+OLTP2m4m4uXbGs9fLK8Cg8F3Y1a+Na+vm2u5usaJUKona9Tthm7dQtXIVEs6dA1QDvpW1JfZ2qk1Xe3tbrKystPZ9lEjjkctTUCgUJMqSyFAqNcmGrK1UQkQsdsLNtXOhQrQUhmvXkhkxagyf9/FkTK4l3OrAYPbs2cf9Bw/wHfUl3l4DilzvviMSDMoY0K29c7H081VIpPFEREYTGRWN2NkJdzcXXF07v3djhlKpRCI9rblfkakp/n6jcHcr+RWW3gkMQLPZFXvoMD7eAwUPUC0SEBRCQGAw/r4j32g+GxEZTUBgMAYGsG7tGs0P81l2NvMCwhjW52PqWtd8bR36gFR6mphDcUgk8STKkrCza4jY2QkTk/K0b9e6yPF1tIlckStEEpOQSOM5JYnHwMAAd7fOiJ2dcHZ2eusBcuw3k6hatTIzp3+vOXcnLY0vBgzm/8b40uezXm9Vb1LyTaIPnWDs4M9KJESMXJFCbGwcMYfikEpPY21liZubiyZ+WGlUWyXKklTf09g41Urf0hKx2Inenh46/X7qpcBQI5HGM3XabAwMYN7cmXr1Qy7tJMqSmDZ9NjnkMHnS+CI924jIaI0K8czFy/x++CRP/31G80YN6N2lvba6/NbIFSkcOnRYM+Dm5OTgrh5QxG8/4OoKiTReM5DIZJewt7PVrD4K+zmuWPk/zp3/m7UhAS+9t/PXCH6L2EXYxrVv3ceNEfupX9uSDk5N37qOt0GpVHJKEk/socNIJPEoUlI0n3MrZyetq/jelkRZEjJZUu5nexilUqn5PN3cXPTmO6rXAkNNQGAwG8PCaWRvh79f0SMsCjxHrkghMCiYiMjoQq0q3sTy9dvJyHykeT1+eD9EFSu8azeLhbybgnZ2DXF3dcHNzaXYVDr6gFKpJCb2sEaIVDIT4eM9CM9en7xyZh0RGc2KVf8jdMPP1M4NyPki4ydOoU3rVvTr+9lb9evKDQU79x/Bd4AHZqYln6dajXr1oZ4sZGZmIhKJsLezxd7eFpFIRCtnJ0xFplr/Xqj3reS5+2ESSXy+1Mfqla56MqOPlAqBAbmmY4HBGn2lIDiKhlKpJHTTFk2oD3+/4tkoDI3Yz5V/nm8Gz/pqyDvX+a5ERkUTGhbOTbkCdzeXYrvX0kBEZDShmzajUKQWuCF85sxZfP2/ZvmyhbRrm9+SKS3tLteuJXM1OZnk5OtERkVzcN9uKryl9/6OvYcxM61Itw7a3csoCuoBOjExSbUakcbnM0Cwt7PNJ2jVQiUveS3dMl6R614mSyIj43nYI7U5sNpYwjp3P0wsdtIIsNJAqREYal4UHL09PT5487rXkShLImxTODGxh7Gza8gYv1HFKmiTb6YSdyqBzEePMPzvX/wG9y+2uouCXJFC2KZwnW8K6gsvbgj7eA+kZYvm+Pp/TefOHWnR3JHk5OskX79OcvJ1riVfJyUlldq1rKlTpza1a9eidq1a1K5dC5fOHd+qD8nyVEIjD/Jlvx5YVtd/p7tEmUqIqIVJXgqydHsRs1cM/HZ2tpiZid6LCW6pExhqlEqlajYVFo4yMxN3t854ew0sNZJa26hVMRJpPJ69PPDxLtlno1YHfTfx2wIH7ezsbGbNmc+Eb8dRqZLZW7eTV8Xm5toZH++B78UPs7iQK1KIjNzFxrBwsrOzqVa1CjflCiwsalK7Vi1s6tWlXu5ffZt6xR4e5bcDRwH4rGuHYq1XQDeUWoGRF/VsKiY2jlrWVvT2/PS1Otz3lRdn2T7eA+nt6aGT55AoS1L51Mgu4e87ssC8wXPmLuBuejorf1xS5Pq1pWJ7Xzly9BgxsXHs3rMXezs7vv4/3xIRrDdT7/Dz9t/x7tWFBnWFWF2lnfdCYKhRbwCGbtqMTHZJY4L2LqaH+k5eC6CY2DiNn4S2PT4Li1p3+6rBacaseVy5epVNG9cVus6Y2DimzZijFRXb+45SqSQ0LJyNYeF81vtT/H1Han1CsSv2GCl30vH27EoFE2OttiWgXd4rgZGXRFkSEZG7NKaH6g0msbNTqd7zUDvxxOb6EcgVKTg7t9RYAOm7YAwNC8fMTJTP+a93ny/o2tVd4zz2KpRKJdNmzOHkKSlj/EYVuGoRKBxyRQpTp88iRZGidZP1p/8+Izw6FhPjcnzR01Vr7Qhon/dWYORFbZstkca/ZLuuysthq7cDrdqC45Q0ntjYOBJlSVhZWuKW67jVKtfKorQQExvHosXL8/nWPH78mIFeQ1Wh3kcOL/A6dXpJO7uGzJ87S28/r9JGaFg4qwOD+az3p1oNx3M/I5N1O/fQ6KO69OjUSmvtCGiXD0JgvEhe23W1cw88N6lTO3NZW1mVWGC4RFkSitz4RQqFArk8RWO1YWpqSiuxE26uLkV0NFNwcPWfVB/cD8fC3MKNQ6w6Yc6w/k15ffEi1lsAoWHh+VZEZ8+eZ5Tv/zF92mQ+6flxvrIRkdFMmzGb7yZ+K6wqtIA6HE8ta2vmzZmhte+7/FYaIdt208utHS2bNNRKGwLa5YMUGAWRKEtCLlcgkyVpTOgSE5PIzFRFJs27ZDczE2FXgMWROmCcGvkLAevU5M2slzeonZ1dQ1XcIrvcuEW5sYze/ges5OrxZIxbNsW6MKrjv1bi8HM94lZ78vog5edY6riW+vtX0KeYIoEsWrIcE2NjwjZvZU3gKlq2UMWkUs+A58+dqTf7Mu8jSqWSr8ZNIFOZyfq1QVoTGpeuy9kUdZBxQz6nspmpVtoQ0B6CwCgEEmk8GRlKZAU46KgDxb0J6wIC14lEomIPapcmk3BHZA3X5Rg7mPDH6EhqrfKDgLFE37NCfkuBmY0nE2b0o/4/e/lp9TYuKkHU4TsWOe7F6ed6xI1W4hdhTeAMV8zPhtEv9zjr8EqWrE/gThUTiDXi8/0r6HprO/MCDpH2DOp7TGRCb3PkkmSMrU25ecuY5i2sMAZu377D9JlzsLS0wNLCIt9/U9OKBAWvJWzTFho1suNp1lOCAlZx8pSUhYuXsWHdGsFcuoSYOn02MlmSVoXG8TN/c/hUApNHCavF0obehDfXZ9SrC72f4crWMXyckqGDr7Hkaj/i2pqQdiENs2zgloyLjb9j31Ijgj282XC4EY0CpnPzy72s7ZHGhjGB/FrDRlVP9l0u3hLlP74VyfyvE+gYsY6Bj9bRK/YsZB5ink8kjbaFMbT2n8x3H8cvDSPpcvlHeu3vwYRbgfwi306ARzWuX7+Bxyc9SElJJTX1Fglnz2mOlZmZVKhQgTp1avMw8yGtW4sZ9+0krt/4RxAWJcz8uTP5etwEho3w1ZrQaNu8MTdT7rBuxx6G9+1R7PULaA9BYLw3XGPD9EDqf+bHwYVpfB3RHmPO5SvRydEODJWY14czqWc5da09XcTVwLAaQ4NWwF8rmf+q6hXJ/IEjo20AxHTiLPyTyEGekrZ+OhfJQmknIkt+l/r9v2FIN18uevTn5vxF7G6zmE9ekXb2wYMMUm/dIjX1Vq4ASSXp0mWuXL1Ku7ZtBGGhA+bPncnQEaNZHRjM5EnjtdJGvx6d2bnvDxaFbMFvYC/MTPUj/pjA6xEExnuDDV0HteenA0ZM6H+N6BPXGGiTv4RxRaPnL8zqYF9hNVcVQE0Fv36zgiyXPAlv7j0lA+D6NaAeVLaiERJu3gdH5NwE6le1ojn16DN5Lp9Uvssf245SyVFE1vE9/CIawYSKeznTfzpdXrMhUqmSGZUqmWFn+3wTtG9/L/p+/hkTx49DLldgba29LH5595PUiPUgp7ouEYlErFqxjM/7DdIEw9MGn3fvxGFJAsvXb8end9dSka3xQ0cQGO8R1r3nsu7+Sv6yCeLzo3s5mPa6cAyN+Hx2D/zG+XOnbQYnH39MoMVd1Vs2zegjn8Z3X/+JUYIEHFzBxpNpoyLxHTePk+zhIGI61ezBhG/24TdqOmfqX+OA3I2VHkrO/GPFj1PNObXfi0XfNKUorloBgcGakOuAVoUFwIhR/vTs0Q0jI2OMjMpx5Ogx9v0eqdU2SwPWVpaM8RvFtBlztGq63VnsSPUqldkUFUO39k60ad5YK+0IFA/CprcAWY/AuACNQNajpxhXMMp/MvspWRhhbPjCuWdGGL+jE69SqaRbD09WrVhSYt7bbTu4cfxorOa1h2dfoiN3MO+HRcjlCo4cPcaUyRPwGvgFANt3/MaJk6ewtLRgyGAvqpubM2feQo6fOEm1alWZPnUydrYNNalPHR2bMmPaFOxsG7Jg4VKuXktGLlfgO3oEvT79hPjTZzh5SoK/70iOnzjJnHkL+dSjJwqFgvv3H2BqWpE6deoA6CSRWLePe+HvN0qT/0Rb3Em/z459f1CrZnU+cWlNmTJltNqewNshfCoCBQoL1Xmjl08aviAs1OeKIeJDaFg4VlYWJRrqo+ILuTvKlVUtui9elJF2N53zCRKio/ew8qcAEmVJnDh5isnfjaepQxOWLV8JwLbtO9kT/RvdurizcNEyHjzIYPzEKZxPkNDv8z583m+Qqm6jchw/cZL/rVrG+l/C2BS+lf+yszVt/7z2F4yMjPD3Hcm8OTN5+PARC3+Yi7/vyAJVZyWBv98oAoOCtd5O9aqVGf3Fp2Q9fcr6X/eiuK2b3PYCr0cQGAJ6Q+yhw/h4DSrRNitWeEFglCsHwMOHDwlarRIIQ4d4kyhLQiKJp1tXd6qbm9O9Wxd+33tAc52Do5jFS3/E2tqSI0f/1JybNmM2AGfPnefcuQucT5BQv74NvqNG8OBBBgBZWVkEh6xj0MD+GoFVEA6OYk07JUVvTw8eZCg1McG0SZkyBvT9uDM2tSwJ3rqb/UelPHqSVeztXL4u535GZqHKJt9MLXTZDwFBYAjoBerENiW94VyxYv5scGqBUaVKFWRJKr+b9PR7VDITqcx+Hz7UlC1j8Py68wkSxo0dw7FjJ2nSuBGWlhacT5BwPkHC5rD1VKtWjX+f/cuRo8cASE6+rrn2yeMnPMnKwt3NRdN+Qajr238ghkuXLr/zvReWVmKnEl3huLVpwegBHtzLyCQoPIr4Cy/7PxWVs7KrzPrpF+YHhnHln5TXOg2euXiZQyfPMOunX7h45brgYJgHYdNbQC84JYnP9XQv2RhRxi/o0srmmeEvWbaSLu5nCQwKYe7s6TRubM/IUWMoU6YMckUKI798Hvdq6IjRpKbeom7dOtjY1CMlJZWeHn0YOKAfsqQk5s2ZSVnDsviNGcu8OTP59bdI5s2dCTlw/cYNFvwwBwAjowLUgLmMnziF9PR7pKbeonr16sX8JF6Nm6sLEVG78C+xFsGyejW+6OnC35eT+UNyjguXkmnbvDEN6xWcUjYvV24ouJN+n0oiUxp9pNr/OfbXBWpZVKesoSHd82QAvHJDwY2U29SxrMFHdVQGFsf/+ptaltVp0qAePTq3BlQrDYB6tSxIvplKvVoWmvPq4/DoWNLuP+Dzbp2wqlHtpWvyUq+WBekPlFxKvklrx0bcUNxi7xEJJsZG9OjUmupVK73L49MawgpDQC+QyZJ0EkTxxY3k//MfrTn+bUc4oJrZf9a7F9XNzVm8cB7WVlb09vTQRNddtmQBA7/ox8zp37N+bZDmmrFf++Po2JR5c2YCYGhoyC/rg7G0rMm+PVGavZoRw4ZQpXLll9rP2zevQV/Qras7Pt4DOH40lsqVS25Asba21KQwLWkaN6iH78BPqV/bku17D7Mr9jipaemvLJ96J50zFy/TzK4+z7KziT+fxJOsp6TeSae8sREurR2Z9dMvgGrVceWGAtfWzbl19x5nZVd59PgJt+7e48mTp9Svbakpm6y4xeOspwDsPSrRtHfgmGrlNeunX7CoXpVPXdoSvDWap//+y9mkq5pyyYpbLx0f+FPKwWPx/Pssm3U799ImVyCu3hRRTE+v+BFWGAJ6gy6c9F5Ugb34+sWQ67a2LwfN696tS4F1F3TeqWWLQref97iLu27Dgr+YsrSk6eDUFAdbGw4dP8PP236nvZMDrq2bv1TuTOIV6lrXpEJ5E5ra2hC8NZpqlVUZHb16qT4PJwdbDp08wwPlQ9q3dACgYd1a/Hn6PBXLm9CgjjX9enQG4A/pWe7eV+01paal0+ijOmRkPtK09yRXiKi5Jk/FonpVUtPuUa5sWa7JU7kmTyX9fgb1rFSB17Kzs/n7ynXAABNjY9IfZFC1kkjTjomxEfczMvVSFSasMAT0BjM9CtOuXinoe50lgb5421+9kcKVfxTUtqxOrZoFe4MaG5XDPHf1pR7Y1SojNQYGBpgYG1GurCGGhmU012VnZ1PZzJS7ucYIABXLm6DMfAQ5OaSlPwDg2bNnmvcf5xEYhmXKYGJUDqfGDbl1J53yeZJFVa38PA3xv8+ykZxN5IueLhgblaOMQRnKGhpiWKYM5Y2NcG/TgrT7z/ugTwgCQ0BvSCwguKOA7tH153Ij5TZhUQc5fuYCLq0dGfJZ91fuZTS1teH8pWQePX7C35eT85WLOX6a1DvpSM/JMK9SiXq1LDh2+gIA8ReSqFrZjGqVzbj3QEn8+STizyehuH0XyxrVUDurHTp5hn+fZXPo5BkOnTzDk6wsLl2XY16lEo8eP8HR/iN2Hz6JuJk9ADbWFri2bo6BgQH/5bq8ZWdn0/dj1QrGxNiIKpVMyQHqWNbA1qY2uw+fpEEd/fR6Fxz3BPSCgMBgTknj2bB2ja67wupAld/BGL9RHP7jKFG7drNsyQId90p3SKTxLFy8jJ3bNpdou48eP+HPvy7wZ/x5xM3sad+iSaHUNJdvyLmVdg8z04o0tVXFx7mT/oDYE3+RcucuLq0cad6oAaAKt34z9Q41qlWmSYN6AKTcSWffEQk5OTl0adeS2pY1OJlwMV8bhoaqVYGJsRFXbij4xKUNEQf/5IbiFj06t6ZhXes3bnrD803z1LR77D8qwdjIiHYtm1DbouSMGoqCIDAE9AKJNJ6vx03M53WtK1YHBmNgYEArZyc2b9nG8qULAdi3/yCXrzzfyBzjNwqJJF6z1yCVngbA2bklt27d5pfQTVjUrMlgn0Eas1R1WYkknqynT8nIeK56EIlEdOzQLp/A0gcCAoNJlCWxasXSEmvzr78vczT+HBXLm9DBqSm2Nm+2jtIFyTdTSVbcwqWVo667UiIIKikBvUDs7EROTo7O1R95Cd20RSMs1Fy9eg2AwKAQAAJy/9+7f5+dv0bw+PFj9u0/iHu3TzCtWJF1Gzby1djx+cqqj7Oysrh95w7bd/xGSkoqT548YfmKn0hLS8PAwAAHR3FJ3OYbOSWNLzHv+4ePn7D190Ps+eMUjo0+YujnH+utsADVSuFDERYgCAwBPaKV2ImIyF267oYGI6OCnegKmvlvDN1MkyaqwHnS+NPMmD6FRo3s8Rr4BYfi/tCU2/37XoJD1pGSmoq7mwtDB3sDMGL4ELp2caNTh/YMG+rDn8eOa+GOio5SqUQqPY1bCeSCUdy+S1jkATIfPWHY5x/TybkZZQwM3nyhQIkhCAwBvcHHeyCRUbt1bsKppmeP7syd93yFceHvi9Svb/NSub37DlKxYkWeZD0BoG6dOty5k8a1a8lUqFiBad9/pylrYGBA2bJluXPnToFtrglZS0+PPvTy6FnMd/N2hIaF4+zcUusOlRev3OCX3/ZTpZKIIZ91w7J6Va22J/B2CAJDQG8QOzthZWVBaFi4rrtCTk4Ori6dsLNryPIVP7Fl6w5OnJS8NHAaGBiwMXQTXw4fwtOn/wJQo0Z1AoNCaNNaTHkTE9Lv3dOU79mjO8OHDcbKqmArmOMnTvHr9s38c1OuvZsrJEqlktBNW7S+l3LizEW2/n6IFo0+on8PF8oavhjdUkBfEASGgF4xedJ4QjdtQa5I0XVXAOjf73NMTEzYd+Aggwb0p7fnpwD45Xphm5iY4Dv6S015I2MjunV1Z+b07xn37XfIZJc0HtvOzi015Xp83E1znNdBz893JL7+Yzl9+gzbt4Yxe+4PWr2/1zFtxhzs7Bpqdf9i31EJe4+cwsOlDR93aqW1dgSKB8FKSkDvWLh4GVLpaXZs26TrrnywxMTGMXX6bHZu36w1ddS2PXFcvq5g1BefYF5FP2MnCeRHWGEI6B1j/EaRQ44mNLhAyZIoS2LajDnMnztTa8Ji574/yMh8xPe+gwRhUYoQBIaA3iESiZg/dxYHY+IEoVHCJMqSGDbCF3/fkVrL5X36wiWS5al82U8/NvYFCo8gMAT0Ens7WzasW8PBmLh8/gsC2kMtLNxcO+PjPVArbdxIuU1U7DH8BnlqpX4B7SIIDAG9RS00NoZuZtqM2Xpjbvs+EhMbx7ARvnj2+oT5c2dqpY37ykzW7djDkM+6U8GkGHL6CpQ4wqa3gN6jVCoZOmI0BhiwcsXSEk+y9L4TEBRCQGAw8+bMpLenh1bayMnJITTyAHY2tWnt2EgrbQhoH2GFIaD3iEQiNqxdg7NzS/r29yJs0xZdd+m9QK5IoW9/LyIidrFj2yatCQuAXYeOU6WSSBAWpRxhhSFQqpBI45k6bTbW1lbM06IVz/tOQFAIoWHhePb6hDF+o7Sa7fDQyTNcuaHAx7Mrxq8It1JaUAeYBLC0svzgvn+CwBAodSiVShYuXk5kVDQ+3gPx9x2pk/SupZGY2DgWL1lOTg7MnzdT60EF72UoCdn2O727tMe2EPm4SxK5IoUURQqnpPEolUoSE58HvlQoFG/tPJr3mZqZibCzs8XayhJrK6t8zpulEUFgCJRa5IoUpk6fhUx2CR/vgfh4DRAExyuIPXSY0LBwki5dpmXL5vT8uBtWuYOYuXk1rbW774iE9AdKBnq4aa2NN5EoS0ImS0KuSEEiyRUOuVGRrSwtsbK2pFXuIG9nZ4uZWf7vkJWV1WtXEnnry9duYhJKpRK5IgW5QqFZnYhEIuztbLG3t0UkEtHK2Qk7u4al4rsrCAyBUo9EGs/qwGCk0tP09vTA22ug3qQV1SVKpZLIqN2Ehm3mQYaSwd4DadumFRMmTaVduzbcuHGD5Os3yMzMxMrKCitLS2rWrEHNmjWoW6cOH31kg029upiYmLxV+6lp6QRv3c2AT1xLdHUhV6QglcYjkcYTE3sYpVKZG0BRNfCLxU6aQbukUQsXtTA5JY1HIU9BkZKCvZ0tbm4uuLl21tvvryAwBN4bEmVJhIaFExMbRy1rK3y8B+LZS3sbufqKXJFCYFAwMbGHsbKywMdrUL4N7f0HYvh2wmQW/jAHj0968OzZM65evUbSpcucSTjL338ncv3GDR48yKBG9eosWjA3X7yrwhIVc4yHj5+UyOpCKj1NzKE4JJJ4EmVJmhhY7m4uJZbL411Qr35iD8VxShKvSuAldsLNtTPOzk56s1ciCAyB9w6lUklEZDShYeEoMzM1gkNffnTaIjIqmojIaCTSeDx7edDb0+OVg2XIz+sJCv6ZTaHrXzmbPXPmLMNH+hG2cS2NG9kXqS/J8lQ2/LqPQZ+6a211IZHGa+7Z1NRUIxzc3TqXCvXO65BI45FI4ok5FIdMdglrK0v8/Ubh5qrbexMEhsB7TUxsHKGbwpFKT2NtZYlb7qDi5tpZ1117ZxJlSUilp3NVL3FYWVrS29MDH++BhRpUpk6fzaVLl9kUuo5y5V62XvIbMxY724aMG/t/Re7btj1xZGf/p5XVRWSUajJwU67A3c0FH+/3WwWpVCqJiT1M6KbNKBSpuLt1xs93lE4mQILAEPggUCqVnJLEE3voMBJJPIqUFI3Kwtm5ZakYcJRKpar/ubNPuSIFZ+eWuLu6IBY7FfkelEolX42bgGXNmiz4YU6+9/448icLFi1lc+g6qlSpUqR6r9xQEBp5oFhXF3JFikZQiExN8fEeSG9Pj1K/kigqEmk8EZHRREZFI3Z2wsd7YIlOfgSBIfBBkihLQiJRbYzGHjqs2QQVi50wyz3WpeVKoiwJhSIl97+CxMSkfLp5tbB7V86dv8CESd/Tt09vRn45THO+d98BZD3O4rtJ3+LSuWOR6ow5/hdJ1/7Bb1Cvd+6fRBpP2KYtxMTGaWJclYY9CW0jV6QQGbmLjWHhVDIT4eM9CG+vAVpvVxAYAgI81xln5LFiyczMBFR29dbWllhZWWFvZ4vZC0KkKIIlUZZEpjLzpXPyXKGQ1/7fzq4h1rltWllZIRZrZ/Mzevcevp82ix+XLcLdzYXtO34jInIXjRvbE75lOx9378rwYYMLvY+xbuceLMyr0rNz67fuk3rjPiIyGm+vAfh4D3rv96DelojIaAICgzEwAH+/UVo19BAEhoDAa5BI45HLU1SzfFkSGbkBEPMKlIKwtrJ8o+NXXkFjb2erEg72tm+0+9cGa4LXEr51OxvWBTPum4mM/XoMri6dOHFSQviW7cTEHmKIjxfDhw2mWrVX59t++u8zfgjaRL8enWnSoF6R+6FOCxsQGIxnLw/8/XSjqy+NRERGs3DxMhrZ2/HdpG+1omYVBIaAQDEhV6gES0GUBjXKrDnzuXHjJpUrV2L50oX53ovatZvwLdu5dfsOQwYPYoiPV4F1JF69wY59fzDNz7vI7Uuk8UybPhtTkSmTJ40vFc9M31AqlYSGhRMQFIK/3yhNeuDiQhAYAgICAKSl3WXq9FmM/XpMgeqnp0+f8kvoZsK3bKdmjeoMGezFx9275isTfeg49zIy8fHs+tL1r0MdMdffdyT+fqPe6T4EVGrOqdNnYYAB8+bOLLbVhuGsWbNmFUtNAgICpUL/wSMAAAzMSURBVJoKFSpQp05tmjo0KfB9Q0NDnFo2x93NhZTUVJb/+BOypMtYWNTA0sICgH1HpYib2mNR/dVqq7wolUp8/ceSKJOxJvAnenzcrdju50PG3LwaX/T7nLS0u8yZtxCbenWpb1N0FeGLCAJDQEBAg0XNmm8sY2ZmRqeO7WnduhUJZ8+x7MdV3HuQwdXbD0i5k07LJg2pVtnsjfUkypIYO24iRsZGBAf+hLWVVXHcgkAexGInzKtVY868BZiYmNCsmcM71SeopAQEBN6J3/fs448zMsqbViIHEFWsgLdnF2pWe7X/Rt50sNrK8CfwnERZEkOHj2aw98B3UvkJCZQEBATeiZ49umOSKywAlA8fceSPo68sr1QqGTtugiAsShBNuuOwcCIio9+6HkElJSAg8M6YGBtx+YbKQsww+wmrV/yILOkyVapUplYt63xlvXyG06xZU0FYlDDm5tXo0KEdEyZ9j41Nvbfa0xBUUgICAsXCw8dPeKB8iFWNaly4cJG1639h/4EYBg7ox6AB/bGxqcfCxcuQSOPZuW2zrrv7waI2u92/J7LIkQwEgSEgIKA1YmLjWLdhIykpt+jYsR07d0awY9umYjHzjNq1m++nPVeQLF44j549ur9zvR8CX4+bgIGBASt/XFK0C3MEBAQEtMzm8G05LcTtcgYMGlws9SkzM3OaNHPOOXPmrOach2ffV5a/fedOzv8C1uRcvnL1rdsM27zlpXPbtv+ac+qU9I3Xxh0+krN334G3ajc9PT0nfMv2QrVTWDIyMnJat3PJOSUpWp3CpreAgIDWadCgPkZly7FieRFntK8gIeEszZo64OjYVHNuxtTJSCTxDBvhC6icAdet38iTJ09wde8BgOdn/YnatRuJJJ6AoBCAfNeo/8sVKTRt3gpQqXAcHMWcPn0GB0cxu3/fC4CDo5gTJ08xbcZsPDz7AuA1eDgOjmIcHMWMnzhFU+fVq9cICl5LQGBwvnbyHgeHrEMiiQfAe8gI5i9YDEBHl26cO3+BaTNmszG0eFR5IpGI3p4eBASGFOm6ssXSuoCAgMBrCA0Lp3fvT6lZs0ax1Hcm4Rzt27fNd06dFbD1X2fYtHkLFjVr0OczTySSeHbv+pW6dWrz33//8c9NOZYWFigUCvbtP0jVPOHbM5QZAGwM3Uz3bl0ASE9PZ9mSBXTv1gXPXh6s3xBKZmYmjRs3YtmSBYBKeAA8zHzI+QQJl69cZdac+SRfv4G/70jEYidatmzOipWrNW3t238QgMtXrgJoUuFu3baDmjVqkJn5kD1799PUoQnz584k4ew5vhw1hsE+g4rlGfp4D6J7j17IFSmFjtclrDAEBAS0jkR6uljCsatp8FF9jh0/ke9cQFAIR44e4+RJCUuXr+LxkycAnJLG88mnfXBwFHP9+g2e5J5//PgJfx47wbETJzV13L//gF8jomhkb6cpZ2hoqHnfoUljDAwMSLubTudOHTTnGzZswPkLf5P58CEOjmJ69/kCZYaSenXrMG3GHMZ+M5E/j50gJ+c/zTX7D8Sw/0AMDT6qD4AyM5MnWVkcjI3js969MDQsw63btzl3/gIOjmK8fIbz+PHjYnuG1laW2Nk11KxqCoMgMAQEBLRKoiyJnJycYg0m2KZ1KxISzrE6V8WzfcdvREfvoWOHdgD8JT3G77/v45RESlpaGsuWLOB8goS9+w7Qvp1qZVKnTm3mzJpGuzbPw7Dfv/+AiIhd9Pb0ICsrC4AyhoYa9dLve/ZRvrwJw4f6EBj0XJ1z6dJlHJo0JlOZyfkECecTJFy5eg2JJB4TE2NW/riEqlWq8OjxE801y5Ys0KxQ1PwWEcX/Vi7H2MgIkUiETb16dOrYQVNn61bOxfYMAdxdXYg9FFfo8oLAEBAQ0CoSSTz29sUbartSJTMOx+4jLS0td3/hL1atXAo8V01tCl2HNP4v6tapw/iJUzRqo9UBawDypaV1dm4JgJGRET8uWwRAixbNNe9/5vkpQ4aN4vadO0yc8A3ly5ene7cumv0K9cCvXmE4OIoZOWIoYrET7du3ZdgIX8zMRDRr2gSJJF7Tx7z9BRjsPQhjYyNAtc/QuVMHbGzq4uAoZuiI0Yz8cnixPkex2AnFG8Lw50UwqxUQENAqAYHBJMqSWLViqa678lYEBIUg/v/27j22qSqOA/h3iRIZKwnyh7RDiKDriDPEtSUhAmNDwqvSApM4t6HLFAfGgMAYyFgZ2yIsAv/INiATZIMlqJHiFDFp2SRE6L2dkpDQVnzTFlyQyCEQeaT+UXoZ73asj23fz1/r47anXdLvPfec3zm6zNt+2PsKSQ4O+J88IYX1fPYwiCjqesOe6fdj0GXGuwlRE+n/hbOkiCjqQjsV9kZ9sWcR8rBdIe/EHgYRRZ3L7Yl3E+gehBBISUkJ+/kMDCKKKq02DZfE/fc/p/jxev0RTUhgYBBRVI0z6OByeyDifFnqh2MOZIw1ICtnGj7cuAkAsLV+uzKraa2lCkCwWnvK1FmYNtOEgjeKUdewQ6lV6FpFPic3DxljDVi5qhyS5MT8vAXIeXkmZhjnoKi4BD/+dEKpJl9euhpnz567q8L7yJGjsfwK7iLJzojGMRgYRBRVKpUKWu1zsNnb49qO8opK1H28Be32Q7hw4QJcbg/qG3YoNQ7Hjjtw7LiEPbs/wbx5ZqwuW4HmTxvR2dmJGzduAAA6OzuV19vVuA0nT0j45uAhGAw67GvZjdzcOSgrXYadjQ24fu06zp//B6vXWJA714xhw56CJAeDp65hByZMGH/PdsaS/XB7RPUxDAwiirop2ZNhPdD9jXt6wrlzf2PSxGB1du2GauXMOtTD8PvP4uC33ynPH5ScDAB4IeN5vPXOu8gYa8Dvf/wJAEgZNAgvTZqi1HZ0FToOCC7zkZSUhPHjbxUHdtxcuiQJST3/ISOw39oKVUpKRBX4DAwiirrCgjyccrmVM+x4SE5OVn7wyysq8cuvvwEADh204uQJCYsXLYRx5vS7jps7x6T0QkJn47UfbVHue5BZM6cjKSkJn33+pXLfgjffxtHvbfjv6tWe+mjd0rynBWaTMaJjGBhEFHUqlQoLCvKwsXZz3NqwbOl7MM6eh4yxBgx4fABGj3oG5R+UYdoMEyZmTcW1q1fDnkL77OhRSs9El/miMlZxp5EjR6CmygKHJCtboxYW5AEAAoEAHutSbR5LNnsbznh9SlvCxUpvIooJIQTmvZoPs8mIxYsWxrs5/ZbX50fu/HxUr6+IeEFIBgYRxYzL7UHu/Pwe23WPIldUXAKVKqVbS7XwkhQRxUy6Ng3V6y0oKi5hMV8clFdU4qK4iJoqS7eOZ2AQUUyZTUYU5r/G0Iix8opKnHK5satxG1QqVbdeg4FBRDG3eNFC5GRnoai4JK4zp/oDIQTKKyrhcDhRU7Wu22EBcAyDiOJov7UV5RWVqF5viXiKJz2c1+fHkqUrEEDgkXoWIexhEFHcmE1G7GxswIbaTVjyfmnclw/pS2z2NuTOz4dWm4Yv9u195LAA2MMgogQghMCatZWQ5I5uTfekW4KXoNbjuENGTZWlR79LBgYRJYym5hZsrd+OMelaVFdZkKpRx7tJvUpdww40NbfAoM9ETZWlR3oVXTEwiCihCCGwoXYzrAdaYTYZUVa6rMd/+Poa64FW1NVvRyAA1FRbIlpQMBIMDCJKSF6fH2vWroMsd8BsMqIgP4/Ffl0IIWA98DWamvfi34sCq1Yuj/rEAQYGESU0l9uDpuYW2OxtGJOuhdlkhGl2/51R5fX5Ud+wHTZ7OzSaYSjMfz1mM8wYGETUKwghsN/aiqbmFohLl1BYkAfTbGO/GeewH25HU3MLJNkJ02wjzCZj1C493Q8Dg4h6HZu9DU17WiDLHZiSMxkGvQ7Z2Vl9Ljzsh9shyU7Y7W0IBILTkE2mV+L2ORkYRNRreX1+WK1fwSE7IcsdSNWokXMzQAz6zF43WO5yeyDLHbDZ2yDJTmjUahgMOuRkZyXEVGMGBhH1CUIIOCRn8KxccsLn9weDw6DDOL0Oao064XogstwBr88HSXbCZm+HEAI52VlKuxNtkJ+BQUR9ktfnh/3mmbrL5YHP7wcQXDE3NVUDrTYNqRo1UjUa6PWZUW2H3+eHQ3ZCCAGXywOX26NUtev1mUjXpimX1hIZA4OI+g2X2wOv1we32wOvzw+vzwdZ7lAeT9em3XUZa/BgFbQPONMPhcC93isUChq1GppUNcbpdVCpVEhPT7vneyU6BgYR9XtXrlzBmTNe5fbly1fwV5fbIT+fPq38/eSQIRg6dOhtjw8c+ARGPD28y+2BGD48NQotjg8GBhERhYWr1RIRUVgYGEREFBYGBhERhYWBQUREYfkfSIr0cwQNXzEAAAAASUVORK5CYII=;" vertex="1" parent="1">
          <mxGeometry x="70" y="40" width="396" height="255" as="geometry" />
        </mxCell>
        <mxCell id="2QzjrHOPYdLenBr6jiEW-2" value="Actor" style="shape=umlActor;verticalLabelPosition=bottom;verticalAlign=top;html=1;outlineConnect=0;" vertex="1" parent="1">
          <mxGeometry x="120" y="480" width="30" height="60" as="geometry" />
        </mxCell>
        <mxCell id="2QzjrHOPYdLenBr6jiEW-4" value="Проверить пользователя в памяти телефона" style="ellipse;whiteSpace=wrap;html=1;" vertex="1" parent="1">
          <mxGeometry x="208" y="370" width="120" height="80" as="geometry" />
        </mxCell>
        <mxCell id="2QzjrHOPYdLenBr6jiEW-15" style="edgeStyle=orthogonalEdgeStyle;rounded=0;orthogonalLoop=1;jettySize=auto;html=1;entryX=0.5;entryY=1;entryDx=0;entryDy=0;dashed=1;" edge="1" parent="1" source="2QzjrHOPYdLenBr6jiEW-5" target="2QzjrHOPYdLenBr6jiEW-4">
          <mxGeometry relative="1" as="geometry">
            <Array as="points">
              <mxPoint x="320" y="480" />
              <mxPoint x="320" y="470" />
              <mxPoint x="268" y="470" />
            </Array>
          </mxGeometry>
        </mxCell>
        <mxCell id="2QzjrHOPYdLenBr6jiEW-5" value="Войти в приложение" style="ellipse;whiteSpace=wrap;html=1;" vertex="1" parent="1">
          <mxGeometry x="328" y="440" width="120" height="80" as="geometry" />
        </mxCell>
        <mxCell id="2QzjrHOPYdLenBr6jiEW-25" value="" style="edgeStyle=orthogonalEdgeStyle;rounded=0;orthogonalLoop=1;jettySize=auto;html=1;endArrow=block;endFill=0;" edge="1" parent="1" source="2QzjrHOPYdLenBr6jiEW-6" target="2QzjrHOPYdLenBr6jiEW-5">
          <mxGeometry relative="1" as="geometry" />
        </mxCell>
        <mxCell id="2QzjrHOPYdLenBr6jiEW-6" value="Зарегистрироваться в приложении" style="ellipse;whiteSpace=wrap;html=1;" vertex="1" parent="1">
          <mxGeometry x="328" y="560" width="120" height="80" as="geometry" />
        </mxCell>
        <mxCell id="2QzjrHOPYdLenBr6jiEW-14" style="edgeStyle=orthogonalEdgeStyle;rounded=0;orthogonalLoop=1;jettySize=auto;html=1;entryX=1;entryY=0.5;entryDx=0;entryDy=0;dashed=1;" edge="1" parent="1" source="2QzjrHOPYdLenBr6jiEW-8" target="2QzjrHOPYdLenBr6jiEW-4">
          <mxGeometry relative="1" as="geometry">
            <Array as="points">
              <mxPoint x="510" y="410" />
              <mxPoint x="510" y="410" />
            </Array>
          </mxGeometry>
        </mxCell>
        <mxCell id="2QzjrHOPYdLenBr6jiEW-8" value="" style="shape=image;verticalLabelPosition=bottom;labelBackgroundColor=default;verticalAlign=top;aspect=fixed;imageAspect=0;image=data:image/png,iVBORw0KGgoAAAANSUhEUgAAAS0AAAKKCAYAAABoEg0lAAAgAElEQVR4nOzdT2wb14E/8K8oUbRkcSTFVpt6ZEdxsTVpNLUXSKjFJk5Si77UAWLptE1qyXvYBdaW2nR7qCQfmhwiKYcCLSQnQbpARbl1dg9L2tg6F1NZt3EPGge7cVyY9GFd/9G4TmzX4oxMiqJI/Q76vQkpUX/JITnU9wMEsfjnzXCk+fK9N++9qdA0bR4mSKVSiMfjmJ2dRSKRQCKRAAAkk0kzNkdEJqisrDT+bbfbYbfbUVVVBYfDAZvNBpvNVvB9qspnYXNzc0gkEohGo5idncX8/DxSqVQ+N0FEBZReyUgmk5iZmYHNZkNFRQXsdjuqq6tRW1tb0ACr0HU955rW3NwcotEoYrEYkskkg4poE7Hb7XA4HKipqYHdbjc9vHIKLRFWjx8/ZrOPaJOrrKyEw+HA1q1bTQ2vDYXW/Pw8pqenEY1Gjb4qIiIAqKqqQm1tLRwOhynhte7QisfjiEQimJubYzOQiJZlt9tRV1cHh8OBqqr8dZ9XTE9Prym0RO1qenqaTUEiWhObzYba2lrU1NTA4XDkpcw1hdbc3BweP36Mx48fs3ZFROtWXV0Np9NpDJXIxaqhJZqDs7OzOW2IiDa3qqoqbN26FVu3bs0puFZ8JwOLiPIlXy22ZUOLgUVE+ZaP4MoaWgwsIjJLrsG1JLQSiQQDi4hMJYIrFoutO7iqKioqjB/m5+eh6zoSiQTSHyciyrdkMonHjx8b04DWyqhpiXFY8XjclB0kIloskUhA1/V15Y4RWrOzs9B1neOwiKigZmZmEI/H15w9NmChfTk9Pc3AIqKi0HUdsVhsTa+1zc/PIxaLrfkNRET5JnJobm5u1ddWieVliIgAIBaL4dGjRyu+xul0wm63Y8uWLXnbbjweRzQaRV1d3Yoj5qtmZma4vAwRAQD+8pe/4MaNG2t6bWNjI3bv3p234Jqfn0c8HofD4VjxamIVa1lEBHxVw5qZmVnT6x89eoT79+9j586deduH2dlZI7iWU8VaFtHmsNKaVuIi3Hr6ts1opYna1uzsLKqrq7O+Jq83tiCi0rF47faVai/T09Oorq7O25pXuZidncXMzAxDi2izcDgckCQJtbW1a17uuLGxEVVVVRm3DCuW+fl5zM3NYW5uLmvtkKFFVCZsNhu2bduGuro62O32Yu9OTsT9UhlaRGWqrq4ODQ0NqK2tLfau5EUymUQikUBNTc2S5xhaJUZRFCiKAkmS4HK54PF4ir1LVMJsNhvq6urwta99rSh3ezaLaCKmUqkln4uhVUJ8Ph+Gh4eh6zpaWlqwc+dOqKqK9vb2Yu8arSD97sqpVKpg0+HKNbCE2dlZzM3NLemQZ2gViK7r0DQt4zFZlo1/q6oKv98PXdcBAC+//DIaGhrg8/kYWiVI3GWmrq4uowkjRnXH43FTp8aVe2AJ2e78xdAqAFVV4fP5EAwGjcc8Hg+GhoYyXhONRo2wamhowMWLF6FpGoLBILxebzF2nbKw2+3Yvn171hs0iHv9zczMYGpqyrSFCMwKrPUMediyZUvWPqd8Wa5fy3KhpWkaxsfHMTExYTwmyzJ6enqKuFer0zQNqqoaP6f/G1j4DH/zN3+DZDKJH/3oR7h58yZGR0fxjW98Ay6Xq9C7S8twOBx44okn4HQ6V3zdli1bsG3bNthsNmialtfgEkMa8h1YTqcTe/bsQTweN2r8y6mqqkJ9fT2ampryug/pRL/Wkm2btkWT6LqOiYkJBAIB47Fy6KyWZRmHDh3C22+/je9+97toaWlBKpVCe3s7mpubi717hIVaVH19/aqBtfj1+Wwq2mw21NfXm3aV8Omnn8b27dtXfV0ikUA0GjV9sYX5+fklnfGWC61y1t7eDpfLhWAwaFw93Lt3b7F3i/4/u92OhoaGdb1H1IoSicSall1Zyz5IkpRzOStZTyiLznKzZLuCuClDK71pJknSmn9J6bJ1rG+0rHRutxtut9v4WdM0BAKBJfvc3t6edVuapmFsbCzjMVmW2Zmfo1zCora2Fpqm5Xxyi1pWqXS8b9myxfhsZpmfX3ov6byEVvol3/Va6y8yvTN78UFSFAUHDx4EsHCCHjt2DG1tbRmvESd/+hU6YCEkurq6AAC9vb3G44s7ytO3FQgEMvrUBFE7OnToEDwez7oCLBAIYHh4OOMxj8eDrq4uXLt2LSOIZFlGXV0dOjo6su7f4nK6uroYWkXmcDhybiLa7XZs3bo1T3uUO7vdjpqaGtNXPV5cds6hZbfb0djYuKGDGY1G8cUXX6z59Ys7s9OlPx6JRDKeUxQFIyMjWYNGVVUoigKPx7NiR7mowYyOji7bSamqKkKhEMbHx9Hd3W2E4WoURcHo6GjGNkXtyO12o6OjA4FAwNiuqqoYHx9fElqapkFRlIzHZFkuiz6/UrDRfiS73Z6XOX12u73kpueI+Y1m3hBncW0rL/VMm81mHND1/mc2UUPLFliCGFawWjkrBVY6p9O55qAIhUIYGRlBOBw2HhPNv9bWVuPnxUMeQqHQkoASFynSSZJklEO5yTZmaC3ysXyLGEpRiswc9pBNzjWtZDK54SsI6/1lOp1OyLIMTdOWhIcYqCnLckbfQzAYzBpIiwd2rmZ8fDxjm7Iso7u7G263G5OTk0aNLRwOw+12r+mKn6i9pQeNCKxjx45lbMvr9WZcMdV1HaFQKCMcQ6HQkvBbbzOVlpdIJDa8dEs+gmul9bCKxW6348svv8TPfvazNZ1HG5H3EfGpVAqappnaGQcsnLg//OEP4fV64fP5MD4+bjzn8XgwODho/FxfXw9gIYyy1Tw6OzuNoQShUAg+ny8jEBbL9vkkScLevXshy7LRcX7s2DGoqorJyclVg0LXdYyNjeHChQsZj7tcLvT09Cx5v9vthsfjMWpXonYomqCapmUEFrAQ8ov79mhjxCX+2tradfffplKpnIcG5Hs99nyy2+24fPky7ty5U5DtlV50r8DpdKK5uTnrVZxsNZtsJ7KoxYhQcLvd6OnpMWpK2Ygai8/nMx4LhUL4wQ9+ALfbDVmWsXfvXng8HsiyvKbmWCgUwuTkZEbtzePxoLu7O2vgOZ1OdHR0ZOxjen+crutLAlDsF+VHPB7HzMzMuvq2REskH8MCSuWq4WI2m62g63DlHFpiDtZGqs2JRMLUGpqu60s6t10u15JQEM2v5UJLvCa9piPKFz+LmprH40FHRwe8Xu+aalvp5Xd1dS0beOLKpNPpNN6n6zr8fj88Hg9CodCSYRFsGuaXuNVedXX1mptq0WgUDx8+NHnPimvbtm1ob2835QY5FRUV2LJlS0b/d86hVVlZibq6ug2NYYlGo6Y3K/PF7Xajv78fPp8PiqIs234X/Vq6rqOzs3PN5eu6vmonv7iiKIY/iJqkqqrGNgWn08n5iiZ49OgRUqkUJEla9Yta13X89a9/zctwgFK7apjO6XSiu7vblEGmVVVVaGxszDjWpVnfNMnimpcgTvrVuN1uDA0N4fTp0xgcHERnZydcLldGpz6wECZ+v3/V8tJrQZqmwefzrbgfkiTh0KFDWbe1uO9urRcDaH1SqRQePXqEhw8fLjtgNBaL4csvv8QXX3xh6lCAzSrnmlYikcCXX35Z1CqwCB0xsVjXdeNKY1tbm9FpLyZb79271+igFoNOF/cHLSbGX3k8HmPsVPr2/X4/RkZGjMdEmGQbAAoshIrL5cq4ABAKhfD222/j3XffXbZZJ2pb4n2qqiIQCGTUWNk0NN/09DSi0Siqq6tRU1MDm82GZDKJubk5xOPxvDeVkslk1gXxSkEikSjYGmJAnjriC7nwWTaqqqK3txculwuqqkKWZQwNDcHpdMLtdmdcaQyFQujt7YXH44EkSbh27RpUVV2xaSYGbYqR5l6vF2632+i3UlUVly9fXvK+lcZqOZ1OdHV1GUEqhMNhDA8Po7+/P+v7REd/ethlWzGCA0rNl0qlMDMzs+b7BOa6rVINLWDpqHUzWWYaj5BtzBKwEEahUAjAV2EhBmUGg8GMZtdaBpOmEzUpQYz9WjxdJp3H41m1eeZ2u3Hs2DEoimKEpqj5ud3uZafeeDyeJRcF0rlcroz5i2R9iUQCyWSyJMdqFfreqTnHtlgQbefOnev+b9u2bRva5npqEm63GydPnlzS75RONKfyxePxrHmun8vlwsmTJzMeW61/a6UR9+njxqi8mLkS6kYlEomC71dlT0/PmzkVUFmJrVu3ora2FpWVlev6TwxMXa+mpiY0NzdDVVVomobZ2VnjOafTiRdffBEHDhwwHhMhd//+fczOzi4ZavDP//zPOHDgAK5cuQJJkiBJktH8E9t78cUX4XK5Mt6bvl1gISD/4R/+Ad3d3Rnjo8To9QcPHiwp3+FwQJZlPHjwALquG8/H43Hcv38/6xVAsdzJ+fPnl+xDc3Mzuru7TV++hAorlUqV3IRp4KvB5WYtT2Oz2VBTU5NRw6y4fv360rUf1kFMmN7IvKhoNIp79+7lsvmMZqHb7YbT6Vxxobb0QZ3i9aIZNzk5mfHa5Zp34v1iu7IsGzW55d6j6/qSidyLX7t4+wCW/SyqqmJ4eHhJM7mrq2vZ/jCytpqaGnzjG98oqSZiNBrN+nebL9mGPOQcWmQ+cUsxcUVUTIxePG9RlmUMDg5ygnSZstls2L59+7oXIjRLIpEwhn6YJVtolU5k07LElcv0frlsk8a9Xi+n7ZQQMfQmX8Qcxrq6upKobSUSCUxPTxd8u8X/5LRmK82iF53/HJtVfOIKcEVFxbpmRayFWJe92H2WIrCKMdSJoVUGxERrXjUsHTt27DBlRkIqlUIkEkFVVZVpN7dYjZgEPjU1VZTtM7QsQKwesbhJ6Ha70dbWZgx2JXOIBRcrKirQ1taW0UwXz4lhM+K5vXv3GvcREDVkVVVx9+5dYxzdRmvFsVgMmqata+J2Ps3NzeH+/fsF367AjniL0HUdk5OTmJycREVFhTFlifMLzSXuK+B2uzE/Pw+bzYa2tja4XC6Mj48jGAxCluWM52RZRigUwt27d9HW1mbcmMTpdGJ+fh66rqO1tTWndfttNhsaGxvR2NhY0FHy8XgcDx8+LFhfFjviLUxMSWKNqnDEmv/t7e3o6OgwfhbP+f3+jOdGR0ehKAra29uhaZoxxCUSiWB+fh49PT2Yn5+Hz+czyt0oMXG7srLSlBu3ZlPowFpOaU5kIioBqqpCVVVjCImY9+l2u41mupgQL2YiiFBLJ0kSZFmG0+k0/p2PYQLpK06Yee9B4Kt1wYodWABrWkQrWtzvlP6zJEkZwxqam5sLvj5cIpHAo0ePkEwmIUkStmzZktdaVzKZxPT0NKampkpmmR3WtIiWITrVRUe6pmlGx7vT6TR+Fs8pilK05rumaXjw4EFep9SI5uD9+/dLJrAA1rSIliVmIPj9fmO12snJSXR3dxvzWQOBgPGcpml5H5e1HmKZnGg0ipqaGuOehOutecViMei6jsePHxd8BYe14NVDolVcuHAB4XDYWKdf9HGJm4moqmoMeXC73UYNTPRfiX+LWpiYemX2dCtxr0Qx6Tj9Vlw2m80YGJpMJo27Dc3OziKRSJRMWHHuIdEmtXiNebvdviSYSiWo0nHIA9EmZYWAWit2xBORpTC0iMhSGFpEZCkMLSKyFIYWEVkKQ4uILIWhRUSWwtAiIkthaBGRpTC0iMhSGFpEZCkMLSKyFIYWEVkKQ4uILIWhRUSWUlWMmz0SEa1FVVXVkuWiK+bn57lyKVmKlRewo/WZn5/H/Pw8ksmk8RhDi4hK1vz8PGZnZzNCi31aRGQpDC0ishSGFhFZCkOLiCyFoUVElsLQIiJLYWgRkaUwtIjIUhhaRGQpDC0ishSGFhFZCkOLiCyFoUVElsLQIiJLYWgRkaUwtIjIUhhaRGQpDC0ispSChdbU1BTeeust/O3f/i2efvppPP300/jud7+Lc+fOFWoXiKgMFORWPFNTU/jlL3+Jmzdv4te//jUaGhpw8+ZN/PjHP8bU1FQhdoGIykTBQuvixYv42c9+hv379xuPNzQ0GM9/9tlnaGhowP79+zN+bmlpwcWLF3HlyhXjfS+99BJefvll471nz57FlStX0NDQYDwnyrh58yYikQg+++wzHDlyBC+99JIRmr///e/R1dVViENARHlSsOZhS0sLbt26lfW5qakp/P73vzeCKf1n8e/PPvvMeO6tt97CuXPnMDU1hV/84hfw+XxoaWlBfX093nrrLVy8eBFTU1M4d+4cfvnLX2Jqagr79u3D6OgofD4fAODmzZsYHR0tzIcnorwpSE2roaEBTz31FEZHRzE1NYWGhoZ1NQsbGhpw5MgRdHV14ebNm0YQNTQ04I033sCxY8fQ0tKCmzdv4tatW7h16xZaWloAAEeOHMHPfvYzAMD+/fvx4x//OKN2lR6kTz31VJ4+MRGZpWCh9cYbb+DWrVsYHR01moA3b940XjM1NYXR0VGjljQ1NYVjx45lPHf27FncvHkT+/fvx0svvQRgocZ07tw5XLx40ShLNEFF81JoaWnByy+/jHPnzuGpp57CxYsXjW0AwBtvvIFXX33V1GNBRLkpSGgBMILojTfeMGpM//iP/5jxmpaWFrz00kuYmprK6MMSNa1XX33VaBL+/ve/BwC89dZbaGlpwa9//WsjwFby2WefoaurC1NTU3j55Zfx3//93wCA0dFR/OIXv2BoEZW4gvRpic5yAMuGQkNDA15++WUcO3YMR44cyaghiedbWlqwf/9+tLS04OzZs0YQ/uhHPzJen157u3nzplFzA4CLFy8uqX2lly/2lYhKV0FqWuJK3ZEjR4xwWO/7f/GLX+DNN98EsND86+rqMkLsxz/+cdZ+smxDK7q6uox9uHjxIp5++mkAC7W8V199dUP7R0SFUzE/Pz9fiA3dvHkTDQ0NGaEggiQ9cBbXeMRziwMpvbZ09uxZowaV/n5xVVF0sLe0tGS8L71WtrhMIiq++fl5zM7OIplMGo8VLLQK7ebNm0ZocSwWkTVlC62CdcQXWkNDA/bt28fmHlGZKduaFhFZX7aaFld5ICJLYWgRkaUwtIjIUhhaRGQpDC0ispSCDXlIJBKIx+OIx+OF2mTOHA4HtmzZgqoq8w5TKpVCNBq11HGx2+2ora019bgAQCwWw8zMDFKplKnbyRebzYba2lrY7XbYbObXBzbrOWV6aCWTSWiahqmpKSQSCbM3l3d2ux2SJKGxsTGvf4jiuDx+/NhSJ6Zgt9tRU1ODxsZGOByOvJYdiUSg67plj4skSaipqUFtba0p20gmk3j48CEeP36MZDJpqWNks9ngcDhQX1+Purq6DZ1Tpo7TSiaT+OKLLxCNRi11YLOpqanBk08+CbvdnnNZyWQSU1NTePToUVkcl23btuXlBC2n47JlyxY88cQTqK2tzeuXXTwex8OHDy1/TtlsNtTX10OSpBW/9Ao6Tkt8G0xPT1v64AqxWAz37t3L+bOIGlY5nJjAwnF5+PBhXmrR09PTZXNcZmZm8OjRI8zMzOStzEQiUTbnVCqVQiQS2dBnMS20YrEYNE0zq/iiiMfjOX+mubk5TE1NWf6PLp0IrlwkEgnoul52x0XXdczNzeVcVjKZRDQaxfT0dB72rDSkUilomrbuz2RKaCUSibL4NlhMfDtsVDKZxPT0tCX79lYTi8UQjUY3/P5oNJrT+0tVNBrNS20rlUrh8ePHedij0pJIJBCLxdaVFaaEViqVQiwWM6PoohPfDht9r5Wu9KzXRmsU4ipYOcrXZxMVgXK03v45U0IrmUyWZW0iH8r55MylZl1utfJ0+Wgelrv15AUHl1LepF/hofxiJeArDC0ishSGFhFZSkmuXBoMBqHrOiRJgsvlgizLWV8TDocBAJIkwePxQJZlOJ3OQu8uERVQSYVWKBRCIBCA3++HruuQZRnd3d3o6OgwXqMoCkZGRnDt2jXoum48LkkS2tvb0dPTw+AiKmMlEVqapmF8fByjo6NG7SkbVVUxMjKCiYkJAIDH4zEeV1UVgUAAmqZhaGioIPtNRIVXEn1auq5jYmIC4XAYbrfbCKPFFEUxAqurqwuDg4M4ffo0hoaG4PF4oGkaFEWBoiiF3H0iKqCSCC0AkGUZXV1dGBkZQWtr65LnVVVFKBQyXutyudDc3AxgocYlmpAiAImoPJVE81CWZRw7dgwAVuyPWmkkunifqG0RUXkyJbQ2MgI4PaxUVTX+La4cyrJs1Kx0Xc94TSgUwsDAwJL3mGWjC5iV+8joXJbtKedjk4/FEsv5+AAr/+0sni1REjWttRLDGkSHvKIocDqdUBQFFRUVcDqdGVcUiaj8lEyf1lp4PB709/cbNSlFUTA+Pg63243u7m4GFtEmYKmaFgB4vV54PB6Ew2FMTEzg0KFDcLlcCAQCxmuWu/pIRNZnqdASA08lSUJnZyd6enoALHS+B4NBAAv9WWb3aRFR8VgqtICFTnfREd/d3Q0A8Pv9GB8fBwC43e6sQyaIqDxYKrTa2tqgKAr8fj9CoRBOnDiR8bzb7UZ/f3+R9o6ICsFSHfGSJKGvry/r/ML29nacOnWKTUOiMmfKLcQ0TcO9e/fyXewSYoS82+02fVuC3W7H17/+9Q3dMkvc0adcF3R78sknIUnSut+XSCSMW82Vo23btmHbtm05lfHw4cOcbx5Squx2O3bu3Jl1PNv8/DxmZmaQHlOWah4uVsiwIqLSYKnmIRERQ4uILIWhRUSWwtAiIkspmY54VVWhKAomJycBLAxv8Hq9cDqduHz5csZa8cFg0Bj5Pj4+brwHWJjCw8GlROWrJGpamqZhZGQEfr/f+DkYDGJychK6ruPChQsZwTQ+Pm6MjL9w4YKxTI2maRgcHDSm9BBR+SmJmpau65ifn0d3dzdaW1uhqiqGh4fX9F5xQ4vW1lZomoa+vj6T95aIiqkkQsvpdEKSJAwODqKtrQ2apmUs8qdpGgKBgLEi6bVr1/Dcc88Zzw0ODsLpdEJVVXg8Ho7fIipjJdE8lCQJXV1dcLvdGWGVzuVyobW1Fa2trcYKpuK9fX19OH36NM6ePQtJkoxmJhGVn5IILWBhSo6maejp6cGxY8cy5hBKkmTcpcfj8Sw7VUS8brngIyLrK4nmoaqq8Pv96OjoMJZTXqvFzUMAxpI1RFR+LD1huhg4YXp5nDCdHSdMr2y9E6ZLpnlIRLQWDC0ishSGFhFZCkOLiCyFoUVElsLQIiJLYWgRkaUwtIjIUhhaRGQpDC0ishRTQstms8FmYx4uVs7HxWazZZ2GQQvTVEqhjFK13vPClDPI4XCU7UF2OBzYsmXLht5rs9lQWVmZ5z0qDbn8vm02G2pqavK4N6XDbrfnJcyrqqrK9gvP4XAUP7RsNhvq6urMKLroampqNvzHY7fbNzSh2AocDseGJpEDQGVlZU7HtZTl8iVnRjmlZiNZYcpfifgjdDgcZhRfNDU1NTmHcT7KKDUOhwONjY05l1FugW6z2dDQ0JCXMK6srMQTTzxRdk1wp9NZGqEFALW1tWhqaiqbg2y32/Hkk0/m3Oy12+1oaGgoq+PS2NiY8xdUZWUltm3bVjaBbrPZsG3btg3XPrOpra3NeYmbUlJTU4Mnnnhi3e8zZT2tdNFoFA8fPkQsFjNzM6aqqanJS2Cli8fjePjwIaanp/NWZqE5HA40NTXl9cRMJpO4f/8+NE3LW5mFZrfb0dTUZFoARyIRPHz4EHNzc6aUXwj19fVoampatRaabT0t00MLWPhDjMVimJ6exvT0NFKplNmbzJndbkddXR22bt2a15NysWg0Ck3TEIvFLLE4oM1mg9PpRE1NjanNuXg8jkgkgng8bpkvvPr6eqP5b3b/XDKZxPT0tHFeWeGcEv2ekiStuWZetNAiItoIrlxKRJbH0CIiS2FoEZGlMLSIyFIYWkRkKQwtIrIUhhYRWQpDi4gshaFFRJbC0CIiS2FoEZGlMLSIyFIYWkRkKQwtIrIUhhYRWQpDi4gshaFFRJbC0CIiS2FoEZGlMLSIyFIYWkRkKQwtIrIUhhYRWQpDi4gspapQG0okEpa5E24+iTtVm33H4VxMT08jHo8XezfIAmpqaky94/pamB5aiUQCmqbh4cOHZm+qZNlsNjQ2NqKxsbGkwisWi+HLL79kYNG6OBwObNu2DXV1dUXZfsV8+v2m8yyRSODOnTuYm5szaxOWUlNTgyeffBJ2u73Yu4KHDx/i0aNHm67mS/lhs9mwbds2NDY2mrqd+fl5zMzMID2mTPvaTyaT+OKLLxhYaWKxWEkExfT0NCKRSNH3g6wrlUoZX3yFZlpoaZqGaDRqVvGWpWkapqeni7b9RCKBqakpfplQzlKpFDRNQyKRKOh2TQmtRCKBx48fm1G05aVSKUSj0aLVcmKxGL9MKG8SiQRisVhBt2lKaMXjcczMzJhRdFmIxWIF/3YSirVdKk/iS7iQTAmtVCrF/pJVJJPJgm+zGN+KVP4Kfa6XzvV3IrKkQn8BM7Row8LhMEKhULF3gzaZgo2Ip/KhKAp6e3vhdDoBAJIkYWhoCLIsF3nPaDNgTYvWRVVVjI6Ooru7G+fOncPp06fR3NwMv99f7F2jTYKhResiyzLeffdddHR0AFioZblcLqiqCmBhHNrIyAgOHjyIPXv24MSJE8ZzgUAAe/bsyfjv4MGDmJiYMGpvk5OTABZqcwcPHoTf74eqqujt7cXExIRRztGjR419Onr0KCYmJqCqqvFvsS+9vb3o7e3N+llEuXv27MFzzz1nBK+qqsb+i30MBoPG+0KhEF599dUlz613+7QxDC3asHA4jOHhYQSDQbS3txuPhUIhnD59GpcvX4bb7cbw8LDxnvb2dly/fh3Xr1/H6dOnszYpNU1DIBAwwm6jxsfHEQgEsj6naRrefvttyLKMTz/9FKdOncLY2JgROLIs4+OPP8b169cxNAXly8MAACAASURBVDQEn8+HcDgMVVUxMDCArq4u47mRkRHjfWvdPm0cQ4s2RFVV+P1+KIoCWZbR3NwMAPB4PDh16hRkWYYkSRsqW1EUhEKhnPrIQqEQ/H4/urq6lt1/Xddx7NgxOJ1OeDwenD17Fq2trUteq2kaAMDpdEJRFEiSZNQ0PR4P2tvbl4TTatunjWNo0YbIsoz+/n6cOnUKzc3NGB4ehq7rGU2uI0eOZK2BrCQUCsHn86GzszOn0AoEAvB4PHC73VmfD4fDAGBcTFgsvYk4MDCA9vZ2Y38WvydbOK+2fdo4hhati6qqCAQC0HUdwFd9WrquIxKJGM9dv34dZ8+eNWokayGahR6PJ2uNZ61ETW2lbbtcLuPzZJPePDx9+jSCwaARwOKzp+93enCtZfu0cQwtWje/3w+/32/UrBRFgdPpNJqITqfTeG4947jC4TAqKipyPtnHxsYyakbZyLIMWZaX7URPp2maEVQejweqqsLn8wFYqBkGAoGMfV7L9mnjLBtagUAg4wrO8PDwujtus5Wx+FuUMolmYTAYxLPPPouDBw8CAHp6egAAbW1t0HUdzz77LI4ePWpcDVwLSZLQ1taW9WRXVRWdnZ3Ys2cPent7oSiKcXVPUZSM17a1ta0afJIkoaurCxMTE0ZT1uv1GjW89ObhiRMn4PV6sXfv3ozPL57r7Ow0am5r3T5tnCmLAGqahnv37uW7WKPskZER45suncfjWdMgx3yUkQu73Y6vf/3rBV+2NpFI4IsvvuAqD5RXNTU12LlzpyllF3QRQLOMj49nDRtgoS9hYGBg1dpSIBBYsQzWuIhKl6VCS1xmX0koFMK1a9dWLCN9oGA2iqKsWAYRFY+lQouIiKFFRJZiqdByOp2rjt+RJMm49L5cGasN+FutDCIqHkuFliRJ8Hg8GZeXFz+/2vgYSZLg9XqXfc1ayiCi4ql8880338x3ofF43LQ7zsiyjG9+85tQVTVjXJYsy/jJT36C73//+2sqw+1251RGLiorK1FXV1fw+x+mUik8fvx406wTHw6HEY/Hl0yzSX88HA7D4XDA4XBkvEbXddy4cQNNTU0Z7/u///s/1NfXZ7xePC7+nnRdR1NTU9YyJiYmlrzf6ux2O+rr600rf/Gdoyw3TiuduBLodrvh8XhyKqO1tXXZGly+cZyW+cQcSEmScOrUKePxYDCI3t5edHV1oaenB0ePHkV3d/eSbodAIICJiQkMDQ0ZS8zoug6Xy4Xx8XF0dXUZk6GPHj1qTOUR/z99+nRGGQAwMjICv9+PwcHBnKYplZpCj9Oy9MqlsiznPIs+H2VQ6QqFQpiYmEBrays0TcPExMS6x+AFAgFUVFTg3XffhdPpxKFDhxAMBqHrunEy9ff3o7W11Rjnl20/Lly4sOGVL+grJRtaqqoaC7uVAtGk5Kx96xDzC8fHx9Ha2gpVVREOh5fUqAcHB42VG7xeb8aXmKZpCAaD6O7uNl7j8XiMmr2qqmuageHz+YzgpNyUTGgpioJgMIhgMFgyQbUc8Ucr1mKi0uXxeDA+Po5wOAyfzwev17tkcHFfX59RSxoYGIDT6URFRQWApSs6bMT4+DhUVUVXV9eyMzHKic/nw7Fjx0wrv+ihFQqFMDAwsGTS62LiW3O5MnL541ppGES2shVFgaIoGBsbQ19fHyfHljDxdzM6OgoAaG1tXXZGhFjQLxwOG38PooYtamvAV62AQ4cOAVg52MRqpydPnuQXXJ4UNbTEuuCiZiXLMrxeL1wuFw4dOlRyv2SxDMvExASCwSA0TcPg4CB0XWe/WAnzer04fvw4Ojo6sl5sCQQCUBQFmqZhfHwcQ0NDGbV9r9eLgYEBDAwMYMeOHRgfH4fH44GmaUb/1d69e7NuOxQKobu7O2Md/XK3b98+5GtQwvz8PObm5jI64ot29VCc8H6/3+gMt9KJHwqFMDg4iImJiXWvDMGrh+bTNA2XL1+Gy+WC0+k0gkaWZQQCAciyDI/Hg0AgkLF8zqFDh+ByuRAKhaCqKrxeL4CF37eoocmyjEOHDkHTNPj9fnR0dBi/e1EL6+joQCgUgqIoxrjA9H0qp3GAhb56WLTQEpekFUVBf3+/pQJLEJfPJUla12VshhaVk02zNI0YiCfLcsHGR+WbJEm8hE1UYEULLdFBKpbltSJN03gJm6jAij73UNO0Va8clipd16HrOmtcRAVU1JqW6OQUdy+xEtEJCyzc2YWDTokKo6g1LbfbbVwKXm010VKjKApUVTVWjSCiwihqaInxWMDCWBmr1LbEeB5VVVnLIiqwooaWuGWUqG2t5aYUpUBRFGPy60prcxFR/hW9I97tdqOjowNOpxPhcNiYblGqxG3bxTIlbBoSFVbRQwsA2tvb0dHRAU3TMDY2tuodd4pF3LZdURTjZp+sZREVVkmElggAsXTHyMhI1tuTF1v6PRc7OztZyyIqgpIILWBhCER3dzdkWYaqqiUXXOmLu3k8Hq7sQFQkJRNaQOYt6RVFKZngSl+Nwu12r2tyNFEpEEtGh8PhYu9KzkoqtIClwTU4OFjUMVzpgZVeGySyknA4DEVRcPToUcsHV8mFFpAZXKFQCH19fUXpnM8WWOzHIisS55TT6bR8cJVkaAGZwSXW3hJ3RCkEsexMemCxH4usrFyCq2RDC1g4yKdOnYLX6zWGGxw/ftzUfi5x9fLEiRNGYA0ODjKwqCyUQ3CV/M1am5qacODAAczOzuLGjRv485//jPHxcTx48AD79+/P600vRVM0EAgAWBj4+m//9m95n6bDm7VSMYl17z/55BP8+7//O1588UVs3759w+XxZq0rCAaDGBgYyFhTvru7O+f15FVVRSAQyLhfnWgOmtHpzpVLqRSIPltd13H69OkNL8a5aZZbzqXswcFBXLhwwejfkmUZ7e3t676ll6qqGB0dRSAQyCirv7/f1A53hhaVinwEF0NrjUKhEIaHhzE+Pm48JkmSMR/Q5XJlXbNd3KAgGAxmtOclSUJnZ6dptat0DC0qJenBdfbs2XX//Rc6tIp+38ONcrvdePfdd40JzOKWXuKehGslFiPkPELajMQdtMXNZK2wAq9lQ0sQI9RFYIla1GpDI9rb2+HxeEry/opEhSCulPt8PnR1daGnp8cS54LlQ0sQa1uJvihVVREKhTIWFnS73WhtbbXEL4bITFYNLKCMQmsxcbcfjmAnymTlwAJKfHApEeWX1QMLYGgRbRrlEFgAQ4toUyiXwAIYWkSbQjgcLovAAsq4I56IvuLxeHD27Fk0NzdbOrAAhhbRplEu9+dk85CILMWU0LLZbLDZmIelxm63o6qKlWvKr0IvsWRKsjgcDmzZssWMostCMY9PoSdpU/kr9N+UaTWtmpoaM4q2PHFsilUTdTgceV04kTa3Yvw9mXLmiJU5eXIsVVtbi7q6uqJt3+FwQJIkNt8pLyRJKo/QAhZOjqamJvahpKmpqUFTU1PB+wAWkyTJEkuQUGlrbGw0dZnl5ZiyCGC6eDyOL7/8ErFYzMzNlLz6+no88cQTRQ8sIZlMYnp6Gvfv30cqlSr27pCF2Gw2bNu2DY2NjaZvq2Arly6WTCaNm13EYjHE43GzN1kSamtrjeZYqTaVk8kkNE1DLBZDNBplgFFWNpsNTqcT1dXVqK+vL1j3QtFCi4hoI7KFFntjichSGFpEZCkMLSKyFIYWEVkKQ4uILIWhRUSWwtAiIkthaBGRpTC0iMhSGFpEZCkMLSKyFIYWEVkKQ4uILIWhRUSWwtAiIkthaBGRpTC0iMhSGFpEZCkMLSKyFIYWEVkKQ4uILIWhRUSWwtAiIkthaBGRpTC0iMhSGFpEZCkMLSKyFIYWEVkKQ4uILIWhRUSWwtAiIkthaBGRpTC0iMhSGFpEZCkMLSKyFIYWEVkKQ4uILIWhRUSWwtAiIkthaBGRpTC0iMhSGFpEZCkMLSKyFIYWEVkKQ4uILKWqUBuanp42/kulUoXarCnsdjvq6uqwdetW1NbW5rXs6elpxGIxRCIRyx+nXNntdtTU1KCurg61tbWw2fgdS0DF/Pz8vJkbiMfjuHfvHuLxuJmbKZq6ujo0NTXBbrfnVE65H6dcORwONDU15f1Lgkrb/Pw8ZmZmkB5TpoZWNBrFvXv3MDc3Z9YmSkJNTQ2+9rWvweFwbOj9m+U45cpms+HrX/86nE5nsXeFCiRbaJlW3xY1h81wIsZiMXz55Zcbas7F43Hcv39/UxynXKVSKfz1r39FIpEo9q5QEZkWWpFIZFOdiPF4HJFIZN3vm56eZpNwHeLxOKampoq9G1REpoRWPB7H7OysGUWXrFQqhVgstq7aViKRQCwWM3GvytP09DRrW5uYKaGVSCQwMzNjRtElLR6Pr+tzr/f19BWG1uZV+eabb76Z70JnZmag6/qaXx8IBNDb24v/+I//QHV1NZqbm+FwOBAKhfDzn/8cAwMDUBQF27dvR3NzMwBAVVWMjIzggw8+QCAQwPj4OHbv3o2mpiajzIGBAYyNjeH+/ftobm6GJElQFAV+vx+tra0AkPHz4ufE9mVZNspdSWVlJerq6tZ8JXGtx0nTNPz85z83Pmv653U4HPjggw+gqiqGh4fxq1/9Cvfv38fevXvhcDiyft7h4WHIsgyHw5FRrqIocDqdaG5uhqZp+OCDDyBJUsZnF/sSj8exffv2Ja/x+Xx48OABtm/fbrxu9+7d0DQNv/rVrzA5OQkA+NWvfoXt27ejqanJ+F2K164mlUpBkqScr9iSNSzuZir6wJdgMAifz4d33nkHg4ODGB8fx8TEBFRVxcDAAGRZxtmzZ+H1ejE2NoZQKARgIbQmJyfR3t6Orq4uAAsnVHqZJ0+exNjYGO7evQufz2e8T1VVY/vpP6f/W9M0jIyMQFEUo9xi0XUdk5OTaGtrQ09PT8bn1XUdoVAIY2Nj+OEPf4hTp07h7t27GB4eBrD0Mw0PDxufaXG5ra2tGBkZQSgUgq7rUFV1yWcX2xPvX/yacDicsV+aphnHMhQKobW1NeM5YCHofD5f0Y8zWUPBBpcux+v1wuv1Alg4qSRJAgDIsozTp08br3O5XJiYmDD+sFVVRUVFBQ4dOgRN0xAMBrOWCQAejwcTExPr2q9AIABVVeHxeDb82fJJkiS43W54PB6oqprxeQGgs7MTLpcLANDe3g6/328EvBAIBKDresZnSi9XvD799xAOhzNetxHj4+MIhUIYGhqCLMsZXxrBYBCaphk1QaLVFD20gIUA6u3thaIo8Hg8xh9wIBDA6OgowuEwnE7nkpPG6XTC6XQu+YYWJ7XP54OqqpBl2ThRnU4ndF1HMBiE1+vNOIGEUCgERVHQ2dkJRVFM+tT5I0kSZFk2fhb/Tj8u4jOdOHEC4+PjxuOqqqKzs9P4ubu7G62trUYNKhQKYXJy0giv/v5+47WiKTk2Noa9e/cu2SYAjIyMAAAGBwcz9hFYqLX5/X54vV5cvnw5p2NAm0fRm4fAV7Wqy5cvw+12Y3R0NKPZeP36dZw7d27JH/1yAoEAQqEQTp8+jevXr6Onp8d4zuPxwOv1wufzYc+ePfD7/Rnv1XUdgUAgIzytIL1vTDTP0p8Tn0mEiyDLMsbGxnD9+nV8/PHHCIfDRi1OkiS0t7fj5MmTRi0pvfYmSRI6OzshyzK++93v4tVXX11Su+vq6kJHRwdGRkaWfEH4/X5UVFSgo6Mjb8eByl/RQ0t0DAMwmiS6rkPXdTidTiOoFEUxvu01TcOFCxcymoDpNE2DLMuQZdmoLQjiRMwWaGI7qqouW3YpUlUVPp/PCKpAIAAAGZ3va/lMK4001zQta61UkiT09/fj008/xccff7wk6J1OJzo7O+F2uzP2UVVV3L17N6OWR7QWRW8eOp1OhMNhHDx4EJqmwe12Y2hoCE6nE6FQCK+++iqAhT4t0R8iOsjTmznAwsk5ODgIr9eL3t5e4+TN1rRcSXt7+5K+F7PYbLacJ0bLsgyn04mjR49icnLSOIbpRI1o8Wda3Dxsb283jlX6c7Iso6urC62trcZxXStJktDV1YWBgQH4/X6j/Pb29g3VZjlxenMzZe6hmZN/xaX9xX/wyz1eSOudPJ2P41QKn7vQ7HY7duzYseG5nmQdBZt7WFVVtSnH0DgcjnV97qqqKp54G+BwOHjcNjHTVnmIRqO4e/fuplkTyuFwYMeOHesO61xXeNA0DZcvXzaaz+XOZrNh586dDK1NoqBL0ySTSUxNTeHRo0dlH1w2mw1f+9rXjAsJ6/Xw4cNNcZzyoampCY2NjcXeDSqQgi5NU1lZiYaGBjQ1NZV1x6ndbs8psABsiuOUK5vNhieeeIKBReavXAp8tWyLpmllU5uw2+2QJCmvc+DK8TjlgyRJ2LZt26bsJ93sCr5yKRFRLgraPCQiMgNDi4gshaFFRJbC0CIiS2FoEZGlMLSIyFIYWkRkKQwtIrIUhhYRWQpDi4gshaFFRJbC0CIiS2FoEZGlMLSIyFIKejeeSCSCqakpU254QUTmczgcaGxszGnRy1wVZD2tRCKBL774AtFo1OxNEVEB1NTU4MknnzR9YcairKeVSCRw9+5dBhZRGYnFYrh37x4SiUTBt21qaCWTSTx69IjNQaIyFIvFcP/+/YJv19TQisVimJ6eNnMTRFRE0Wi04K0oU0MrHo9v+H5+RFT6UqkUHj9+XNBtmhZayWQSsVjMrOKJqEQUul/LtNDiLbCINodkMlnQ7XFwKRFZCkOLiCyloCPiV1NZWYmamhpUVFTkrUzRt8Z70hKVh5IIrcrKStTX12PLli2mlC9JEqLRKHRdZ3gRWVzRQ8tut6OxsRFVVebtis1mQ11dHaqqqvDo0SMGF5GFFbVPy2azYevWraYGVrrq6mrU1tYWZFtEZI6i1rQqKys3NOFSrBbx1FNPret9NpsNDocD0Wh0zbWtYDAIVVXhcrmwd+9eOJ3Ode/vZhYOhxGJRKDrOtxuN2RZLvYukcUVNbTsdvuGQuvWrVu4evXqukNLbLO6unrV+ZChUAgnTpyAqqrGY263G93d3fB6veve7mYzMjICv9+fcfy6u7vR09NTxL2iclD0Pq2N+PzzzzE4OIhnnnkG3/nOd/JefigUQm9vL3RdR3t7O1wuF8LhMILBIHw+H2RZhtvtzvt2y0UwGITf74csy+js7MTevXshyzJrWSYIBoNQFAV+vx+SJMHpdOLu3bvweDxoa2tDR0dHsXcx7yw3TisSieDSpUuIRCK4ffu2KdsIh8MIh8Noa2vD0NAQjh07hv7+fhw7dgzhcBiqqiIQCODZZ5/FwMAAgIWaxZ49e+Dz+YyfDx48iD179uC5554zQhAAVFXF0aNHsWfPHuO/gwcPYmJiAgDQ19dn/KxpGgYGBrBnzx4cPXp0yfvEf36/H4FAIKOc5QQCAezZswe9vb0AYJR/4sQJYx8BZGxb7KPf74eiKHj22WczXt/X14fnnnsOwWAQ4XAYkiSho6MDuq5jYmICk5OTGZ9dbFv8fPToUUxOTkLTNONYimPn9/sBAIqi4ODBg3juuecyPmP68QkGgxmfTdM0HD16dMl7rE5RFBw9ehSKoqCjowOffvopPv74Y5w7dw6XL1/G4OAg7t69axyTcmK5mtbU1BRu376NSCSC3/3ud3jllVfyvg1FUSBJUkYzUJIkdHd3o7u7G8DCyRAMBhEMBuFyuXDhwgV4PB54vV6jpiFJEtrb2xEKhTA+Pg5ZljOaR263G21tbQiFQgiHw8vui/ijE/vk8XgQCoVw+fJltLW1GTW/5cpY7bMGg0G43W709/dn9NmNj4/D5/Ohvb0dra2tGB0dxfj4ODo7O9Ha2opQKIRr166hubkZk5OTkGUZ8/PzmJiYgKqqGB4eNo7V2NgYBgcHV62hjo2NYXh4GB6PBy6XC4qiYHBwEJIkGatlapqGQCCA1tZWqKqaEUZut9uoGauqCk3TMvoky4HP54OiKBgaGlq29ir+Xjs7OzE2NgZFUdDf31/gPTWH5WpaV69exSeffAJgoZn4+eefm7Idp9O5Yqe7JEno6uqCpmno6+vD3bt30d7eDlmWoSgKdF03+nB6enqwY8cOhMNh6LoOTdOgaRpcLhd6enpw6NChrNvQdR2BQMDoF3I6nWhvbzfek/6zCANVVdHZ2ZlRM0qvPaULh8NGDbCzs3PJCdDe3o7r16/D6/Xi2rVrRjl79+6F1+uFrutQVRWhUAihUGhJMHR3d+Pjjz/GyZMnjZBP3/bw8DBGR0eNzycCSJZldHd34+TJkzh27NiS9wILYRsOh43AF78rWZaNMJucnDTCy+PxlMVFlEAggFAotGJgpZMkCZ2dnQBgtAKsznKhJQILAG7fvm1KE1GWZaiqCkVRMh4PhUIYHh5GKBQyXifCQpwswMLJlx56opagaRoikQhUVc3ooF6OqLG0t7eved9F7a67uxuyLGNwcNBoXi0WCoWMWshywQks1LjGxsYgSRLa2trgdDohyzJ27NgBRVGgqioqKioyaqbiNeLYLD7BQqEQRkZGMDY2tqZjkc7j8QBYOD5+vx9utzujBufxeKBpGsbHx40QFO+xslAohGAwiJ6ennUFsKh16bpeFk1FS4WWuGooiCZivrlcLjidTiiKYgSUqqro7e1FIBCApmkAvuoEdblcUFXVCAe32w1d143QE+EgSRLq6+uh6/qSk3wxVVUxNjaGtrY2IwzXIr321dHRAU3TjM+wmGiehsNhjI6OLlvm4OAgPv74YzidToyMjGBiYgIulwvNzc1QFAXDw8NGgDudTuPzi5qZaKKlE7W4jz/+eN2BIkkSPB4PfD6f0fe4+HN5PB7j9+d2u9d1DEuV3+83avPrJb5wgsHgsjVvqyi5Pq3f/e536O3txa1bt9b0+t/+9rf47W9/m/W5V155BUNDQ+seGuHxeNDR0QGfz4cjR45kPCf6d0KhEPx+PzweD3p6euDz+TA+Pm70Ofn9foyNjRnfbrquw+PxYGJiAm+//TYqKiowMjICn88HVVWh6zoGBweNPjNg4eTr6OhYUuNbiSgHACYnJ5f0zaVzuVzo6OgwAtLtdme81ufzYWBgwOhfEsHb3NxslCu+uV0ul3Eyeb1e+P1+DAwMGMG+0n4Isiyjo6MDb7/9NgYHB40mtdvtzqhtOp1OeL1eBAIBY5/Tj5Go9Yo+ta6urjUfv1IlarO5hK/b7UZzczOuXbtm6RCvfPPNN980o2CxouFKC4TZ7fYl8w2/9a1v4fDhw4hEIhm1qvWor6/Hv/7rv+KXv/wlGhoaMp4Td/dYaQ0gh8OBffv24Zvf/KbR//Tiiy/in/7pn4yO9EuXLuH+/fs4fPgwvF4vmpqa8Nlnn8HhcODw4cNGE+X8+fPYv38/uru70dHRgStXruCjjz5CdXW1cZJLkoTq6mqEw2EcOHAAFRUVRo1J9M88ePAAra2t2L9/P4CFP+J4PI6/+7u/w/bt243HVFWFw+GAw+HAiy++iK6uriVhkV7e4cOH8c1vfhM3btyAw+HA3r174XA4AAC7d+9GU1MTbty4gU8++QT79+/HyZMnsXv3bqOszz77DLOzs/jJT36C5uZmAAuhsX//foRCISiKYnz+9H6w3bt3Y//+/cbPTU1NePHFF/H000+jubkZN27cwKVLl9Da2oru7m60trZC0zT8+c9/xv79+42TzuPxwO12G2UcOHDA2LdAIABZlnHs2DHjGJkhGAzigw8+2PD4PRG4K92WSzTDcx0jqGkaLl26lHGccmW321FfX5+38hZbvPqxabcQW8ttw2pra5eEiiCafr29vZiamlrzdnft2oX3339/2V9KMpks6r0XA4EAent70d7ejqGhoSWPDw4OWmJsja7r+M///E+jhtbf318y47BEU31kZARerxenTp0ydXtimAaAdV+h8/l8CIVCOHny5Ir9VIFAADt27Mi5hhQKhRAIBPJ6JbGmpgY7d+7MW3npinILsY2qr6/H66+/jjNnzqx5AOnrr7+Ojz76KK/fIvnmdDqN2kG2x0vlxF+JGL8lmqFi2EUp0DQNvb29GBkZWTLExCyio1uSpHVdoRsZGYGqqqsGFoC8TfIXA1CtrGRrWukikQi+//3vZ1w5XKy/vx99fX2rllXsmla5EGOgmpubS+4kKNa+ifFoTqdz1X60kZERaJq25iuBPp8PLpcr55qWqIXmM8xZ08piLc3DtXbcU36kXy0sNcXaNzEmStf1ZWtcopY6Pz+/ZDDvamWv54LMcsSVbCuzRGhdvXp11U7527dv53WgaTAYxPDw8IqDM8Xlfp/Pl/EaVVUxOjoKn89XVlNHaHUrBZfo+3I6neuu6Yirt7nKR2d+sVkitD7//POM2tauXbtw4MCBjKblrVu38jbQ1Ofzoa+vD6FQCD6fD8ePHzeucolL/MFgEL29vcZk1ePHjxujw48fP46xsTFMTEygu7u7LAb00dplCy5N0zA8PLyhwAIWao+SJOX0JSj+Pq0+2b/kQ+vWrVu4dOmS8fMrr7yCjz76CB999BHOnDljjMG6fft2XgaaimBqa2vDu+++i56eHui6jmvXriEYDGJkZMRY7cHtduP06dPo6ekx/iDEVJ3BwUGcPHkSLpeLobUJieASsygGBgbQ3Ny84b4kMc5tbGxsw/skxrWVykWTjSr50BJNw/r6evT19eHDDz80gurAgQP44x//iNdffx1AfpqITqcTkiQZY57EqGoxnebs2bPGN5XojxB/CGLBQDFtRZZlNDc3G/PgaHORJAn9/f1QFAUejyfnQa4ulwtut3tDcwiDwSBCoZAlhtOspuRD6/PPP4ckSfjwww+zji2pr6/HO++8g/fffx+RSASRSCSn7aVPhD548CAmJyfh8XgyVhlY6b3LPW7m4DsqXZIk4fTp03kJi7V09GcTCASMsVmleOFkvUo6tG7duoWnnnpql+zDKgAAFq5JREFU1bFXYkzX0NBQzv1aYgR8T08PPv30U2Oai5h3J9Z9kiTJmF8namJinJWopYka1morRhCtVfqqDUeOHFmxj0vMl52YmFjzqhBWUHJzD9M99dRT65o3mI9BpaJGJTrfgYUxYK2trZAkyRiVXFFRgePHj+PVV1+FpmlobW01mo3Nzc0ZY8bS5xMS5Uq0BsSk8cHBwSVL7wSDQaMPzeVyFXFv86+og0u3bNmChoYG2GyFq/AlEglMTU2tOCcS+KpDvrW1ddlfuphb53Q6jfWtABjLokxOTqKjo6NsvuGodKUvd1Topa0LPbi0qKFVWVmJhoYGY4JuIUSj0XXNZSSilW2qEfHJZBIzMzMF214ikUAsFivY9ogo/0wLLbvdjtnZ2VVf9/jx44IsSpZMJjE9Pc05h0R5tlpXSy4qKiqWPFYSHfG6riMWi6Gmpibvd4Cem5tDIpGArut5mylPRMVTEqEFLIRL+hK9RETZlPQ4LSKixRhaRGQpDC0iykllZWVBt2dqaG3dutXM4omoBCy+OY3ZTA2tQn8YIiq86urqgm7P1NCqr68v6BQdIioss28flo3pibJjxw6zN0FERbJt27aCV0xM31ptbS2efPJJszdDRAX25JNPrrrGnBkKMrhUkiRUVVXhiy++MHXIPxGZz+FwoLGxsSiBBZi4ysNy4vE4pqenkUqlkEqlCrnpdVnLvEmicmOz2VBVlb0uU1VVhZqaGmzZsqWgTcJYLFaYpWmsTtO0kg5VIjNUV1fnff5vrhaHFi/tEZGlMLSIyFIYWkRkKQwtIrIUhhYRWQpDi4gshaFFRJbC0CIiS2FoEZGlMLSIyFIYWkRkKSVzCzGruX379obet2vXrjzvCdHmwtDaoFdeeQV37txZ13t27dqFK1eubGh7kUgEkUgk63P19fUFXz2SqFgYWhs0ODi4bIgsJ5dgOX/+PE6cOJH1uddeew2nTp3acNlEVsLQ2qDDhw8XZbtXrlzJaGIeP368KPtBVCzsiC8z58+fx3e+8x00NjaipaUF58+fz3hePCf+S6+9DQ0NoaWlBY2NjXjxxRdx9epVAMDVq1fxyiuvGO/5wQ9+sGKZ+/btM567evUqDhw4YDzX19eX8b707R8/fjxrbfLMmTMZZZ45cwaNjY1Gv+LibZw5cybjdYv/22h/JJUGhlYZuXr1Kk6cOIG+vj7cvHkTAwMD+MEPfoBLly5lvO6TTz7BlStXMmqLV69exUcffYTBwUE8evQI3/72t/H+++8DAN577z1omoabN2/iypUruHTpEt55552MMnt7e3HlyhX89Kc/zXh8aGgITz31lPHeDz/8cEmQ5iISieD111/H66+/jps3b+K//uu/cOLECVy6dAmvvfZaxj6Jz83+P2tjaJWRq1ev4plnnsH3vvc91NfX47XXXsPOnTvx4YcfAlg4wTVNgyRJ2LVrV8Ya38888wz+8Ic/4PnnnzdqWMK7776LP/zhDwAWrppKkrSktvL8889j165dS66O/va3v8VvfvObjPd+9NFHG/p8t2/fxu3btzP6Es+fPw9N0/D8888jEolg165d+Pa3v2185vR9Ep+boWVt7NMqI5cuXVpyUr7wwgvGv69evbrqxYPjx4/jT3/6E3bt2mXUUIaGhoxa1wsvvJD1qulyQzn6+vqMADl8+DA0TTOee+211/D+++9j586dAIA//elPeOaZZ7KWc/v27YwmYrpIJLKkycpgKl8MrTLywgsvLGm2Xbp0CQcOHACwcOKvVtP43e9+B2AhqN555x0cPnwYZ86cweDgIL7//e8DWOiLSi9/uaEfkUgEH374IX7729/i+eefB7DQRBN6e3sBLKzHv9KQDiBzuMiZM2cy+r7q6+vxhz/8gUG1SbB5WEZeeOEFRCIRnDhxArdv30ZfXx/u3LmDn/70p7h69Sree+891NfX4/z58zhz5gxu376Nq1ev4urVqzh//rzRiS2aYekhIJplon8LWKi5nTlzBs888wwuXbqEM2fOGLW59H4r8djQ0NCSgOvt7cXAwABOnTplBNt6iH458ZnPnz+PlpYWo3ZH5YehtUGLr5it5b/lmjdrUV9fn7UJlj6wdNeuXfjNb35jNKX+9Kc/4d1338WuXbtw9epV3LlzB5FIBO+88w7eeecd3LlzB7dv38b777+Pw4cP49SpU+jv78e+fftw584dDAwMAFgYk/bee++hpaXFaDrW19fj6tWr+PDDDzPKFP1V/f39qK+vx6lTpzA0NIR9+/ahoaEBzzzzzLI1ouUGyS7+7Ok/i1oWAOzbtw8nTpxAb28vvve976167MiaeAuxZax2C7H33ntvQ4NL/+Vf/iXXXduQM2fO4I9//OOSQajLPb7WMt95550lo/yXe5xKnxVuIcY+rQ0qVvhs1DPPPJPRCb7a42stM9sg2+UeJ8oH1rSWwZu10mZkhZoW+7SIyFIYWkRkKQwtIrIUhhYRWQpDaxk2Gw8NUSnimbmMqiqOBiEqRQytZTC0aDNyOBzF3oVVMbSWUVVVxeCiTaWqqsoS3SKlv4dFVFNTg4qKimLvBpHpbDYbamtrLfH3ztBaQWVlJerq6izxiyTaKBFYVqhlAZzGsybz8/OIxWKYnZ0t9q4Q5VV1dXXJtygWT+NhaK3T7Ows5ySS5VVVVaGysrKkw0rgKg85qq6uLvYuEG1q1mjEEhH9fwwtIrIUhhYRWQpDi4gshaFFRJbC0CIiS2FoEZGlMLSIyFIYWkRkKQwtIrIUhhYRWQpDi4gshaFFRJbC0CIiS2FoEZGlMLSIyFIYWkRkKQwtIrIUhhYRWQpDi4gshaFFRJbC0CIiS2FoEZGlMLSIyFIYWkRkKQwtIrIUhhYRWQpDi4gshaFFRJbC0CIiS2FoEZGlMLSIyFIYWkRkKQwtIrIUhhYRWQpDi4gshaFFRJbC0CIiS2FoEZGlMLSIyFIYWkRkKQwtIrIUhhYRWQpDi4gshaFFRJbC0CIiS2FoEZGlMLSIyFIYWkRkKQwtIrIUhhYRWQpDi4gshaFFRJbC0CIiS2FoEZGlMLSIyFIYWkRkKQwtIrIUhhYRWQpDi4gshaFFRJbC0CIiS2FoEZGlMLSIyFIYWkRkKQwtIrIUhhYRWQpDi4gshaFFRJbC0CIiS2FoEZGlMLSIyFIYWkRkKQwtIrIUhhYRWQpDi4gshaFFRJbC0CIiS2FoEZGlMLSIyFIYWkRkKQwtIrIUhhYRWQpDi4gshaFFRJbC0CIiS6kq9g4QkXkSiQQePHiAaDSKubk5AEA0GkVtba3xmm3btmH79u3F2sV1Y2gRlZloNIq//OUvuHPnDjRNW/P7JEnCN77xDezZs8fEvctdxfz8/Hyxd4KIcheJRHD9+nU8ePDAqFVt1O7du7F79+6MGlmxxGIxpMcUQ4vI4qLRKK5fv46//OUvOYfVYt/61rfgcrnyWuZ6MbSIykgkEsEf//jHvIdVutraWjz33HOor683bRsrYWgRlYlwOIwbN26YGljp/v7v/74oHfYMLaIy8L//+7+4c+dOwbe7f/9+7Nq1q6DbXBxaHKdFZDHhcLgogQUAn332Ge7du1eUbQsMLSILefDgAW7cuFHUffif//kfRCKRom2foUVkEdFoFIqiFKwPazlzc3P47LP/194d7KZxPGAA/zAssEvwgsGxcwCk5uBDjeVcq3DryfILVNvc0+YBSHiA1H6BhBdAvvXk9gUc99BLKmIfOJpDSyQ7ZsEGg034HxD87ZhgMLuzO+T7SZEqRHdm8O7HzjA78w8uLy8dKZ+hRSSJUqnkeGD1mabp2B0fQ4tIAsfHx/jvv/+crsYNpVLJkbsthhaRBA4ODiy7y/rxxx/x5MkTS45VKpUsOc4kGFpELtd/4NmNyuWy8LsthhaRy9nxeI5Vrq6uhI9tMbSIXO7jx49OV2Gkk5MToeUxtIhczM1dw77j42OhXUSGFpGLNZtNp6swFoYWEQEAzs/Pna7CWEROx2BoEbmY6PGi+5pkhdRpMbSIXEyW7qFIXCOeaEYkEomx1ndXFAWJRAKxWGzk+5rNJvb3962qnmUYWkQzolarjdWdTCQSME3zzi5du922qmqWYmgRuZiqqmNPeTBNE+/fv7/zfbFYDLVabaz3uhHHtIhczKl12SclctcehhaRi8kSWo8ePRJWFkOLyMVUVXW6CmPx+cSNNDG0iFwsHo+7YsPUUUTXkaFF5HJ3TU1wmuj6MbSIXC6RSDhdhZFE14+hReRy8XjctQPyiURCePeVoUUkgXFmujvBiXpxh2kiSezv77vqAepEImHZWvOjcIdpIkmtrq4KnVowiq7rWF1ddaRshhaRJHRdd003cWVlBYqiOFI2Q4tIIo8fP8Z3333naB3W19exvLzsWPkMLSLJrK6uOjYNYn19Hclk0pGy+xhaRBJ68uSJ8DsuNwQWwF8PiaRWqVTw999/21qGqqpYWVlxLLC+/PWQoUUkuUajgffv39syHeLRo0dYX193bNAdYGgRzaxKpYJSqQTTNKc+Vjwex8rKiiuee2RoEc244+NjVCqViber768dn0wmMT8/b1PtJsfQIvqGmKaJSqUCoNeN7HchNU2DqqpQFAWapmF5edm1S+AwtIhIKnyMh4ikxtAiIqkwtIhIKgwtIpIKQ4uIpMLQIiKpMLSISCoMLSKSCkOLiKTC0CIiqTC0iEgqDC0ikgpDi4ikwtAiIqkwtIhIKgwtIpKKz47F8ImIrBIIBDA39//7K4YWEbna8vLyjdBi95CIpMLQIiKpMLSISCoMLSKSCkOLiKTC0CIiqTC0iEgqDC0ikgpDi4ikwtAiIqkwtIhIKj4nClUUBYqiWHrMq6srtNttS495X8Fg8MazUla4uLjA58+fLT3mNGa9jX6/Hz6ftZeHU+eoHW25vLzE5eWlpcccl9DQUhQFkUjE8sC67vT0FM1m07bjjxIOh/HgwQN4PB5bjt9qtVCtVtHpdGw5/jhEtLFWqzl2Qdh9jna7XXz69AmtVsuW418XDAah6zq8Xq8tx7+6ukK1WhUexMK6h4qiIB6P2xpYABCNRhEKhWwtY5hIJIJwOGzbxQz0luh4+PChbSfhXUS1UcR5MoyIc9Tj8SAWi0FVVdvKAABVVRGNRm09V3w+H+LxOAKBgG1lDCMstBYWFmw92a/TdR1+v19IWUDvG03TNCFleTweRCIRIWVd5/f7bb/Q+jweD+bn54WUdb1MkedoNBq1rSyv14tIJCKsLSI/N0BQaAWDQeF3B6JCBOh1mUQKBALCP087u4TDiG6jqqqOfKZ2CAQCQv9WHo/HtrYMIyS0rB6wHYfIE9CJ9onuPjnRXRPZ7Zilc1RkL6NP6PUmrCTBrP61xG2cuMhm2ayfL7OEZz4RSYWhRURSYWgRkVQYWkRTODo6gmmaTlfjm+KK0cdisYgPHz7cet0wjMF/m6aJ3d1dHB0dIZPJIJPJiKyiZQqFwq3X0uk01tbWHKiNPQqFwtA2FQoFPH36FKlUyqGaWW9jYwO5XO7GuSqbYedknxvb5SmVSl27C9E0beSEyEKhgOfPn996/eDgAKlUCsViERsbGwB6E0fL5TIymQx2dnag6/rQY3Y6HXz8+NGaBtxhaWlp7J98v//+e5TL5RuvGYaBfD4/UZnVahWNRmOi/2cak7Yxk8ncaNObN2+QzWaRz+fHvhBEtjESiYw9t69YLOLly5fY29u78frW1hZevHgxdpmNRgPVanWieo5jkrYAvb+XaZo3riXTNGGa5uAavItdbQF6+x5e/3XXNd1DwzBQr9dv/LseWIZh4PDwEIeHhzg4OMDR0RGy2azT1b6XfD5/o52TBpZsisUiXr9+7XQ1LNE/H5PJJA4ODqDrOra3t7G1tYXffvsNb968cbqK97K5uTm4vg4PD7G9ve10lb7KNaH1Ne/evYOu68jlcoNvglQqNbjL4niC+718+RKZTAbJZNLpqkztw4cPSKVS2N7eRiqVgq7r0HUdL168wKtXr/D69Wuekxaam5u7NSfRFWNao+zu7iKTydzqBq6trUk7DlQoFAZdi2QyiZ9//nkmLuhhstksTNPEzs4OfvjhB6erM7W9vT2k0+mhwxKRSASmaaJarX512IIm4/F4boWW6++0jo6OnK6C5XRdRzKZRDKZxLt374aOc82CYrGIQqGAX3/9dWYu4mQyOfJvpeu6Iw+0z6phj3K5PrQ2NzeHniSmaUobaJubm8jlcsjlcvjzzz+RTCZnZsznup9++gmGYbjyF6j72tzcRLFYvDWeure3h2w2O1MB7VZShNbe3t6tX2qy2Sx++eUXjh+4VKFQQCQSQS6Xc7oqllpbW8POzg52d3cRDodRLpfx/PlzbGxs4NWrVxP9ekh3G7ZahevHtDKZDAzDGJwUQG8wdHd3F/l8Xspvtf58M6D3QwOAQdtmydbWlpR/n7tkMhkcHh4C6E0XkH2elpsNW9DTFaGVTqdHzvHI5/N4+vQp/vjjDxSLRWQyGezv70s5EG8YBsrl8qDLm06n8fbt25macGkYBlKp1K0JwIZhzNwPDtvb20in005XYyqGYdz6ckmn064I4mGrmbhicqkd3Dq51CpunlxqFbdOLrWKWyaXWsGOtgQCASwuLt563fVjWkT0bfralyRDi4hc6WtLODO0iMh1fD7fV1eTndnQErGvnJPcsjGtna6uroSVNUufp1s2vJ2G3+//6pLiQkKr1Wqh27V9vP8GkZt9ihwQB3obfor+PEW3EYDQTWlFBmSfXV+sTgTw2dmZpccbtYWckNDqdDo4Pz8XURSA3h9N5EXWaDSEhogTu0yfnZ0JbWO9Xhfaxna7jYuLi5ko7+LiQmhPo9VqWfq30jRt5EYjc6J2danVakI+yE6ng1qtJvQC63Q6ODk5EVLW2dmZ0Iurr9vt4vj4WMjn2mw2Lf/mHsfp6amQc7TdbuPk5MTWz1LUdvXtdhufPn2ytC137aHo+ffff7v1et2yAu+iaRoCgYDluxVfXl6i1WqhXq8L7zr1eb1eaJqGUChk6RZfnz9/RqvVQqPRcHysrr8xp9VtBHrf2GdnZ463UdM0qKpq+b6LrVYL7XZb6F1rKBTCgwcPLJ9j12q1cHFxYXkvQ1VVxGKxke/x1Ov1bqVSmYnBOyKS25erlA4zNzc3N5PPhxGRXEKh0Fib5s713yx62j8RUZ+iKGPfPA0GJebn57nVOhE5IhwOj50/g3f5fD6uuEhEwum6PlFP70a0aZp258+NRERWURRl6JpZo9y6H3NiWQsi+vYoioLFxcWJh6WGvnthYcHyOSpERH33DSxgxGM8sVgMiqJMVTEioi9NE1jAiNCam5vD0tIS77iIyDLTBhYwxgPTi4uLEw+UERF9yYrAAsbc2CIajcLr9aJWq01VGBF9m8Lh8ERzsUbxnJ+fj/20Y6vVQrVaFbpWFRHJy+fzYX5+3tIZCROFVt/p6anQ9bGISD6qqiIajVr+pM29QgvorfRomiaazaalFSIiuSmKgkgkYtuPePcOrb52u416vc7wIvrGKYqCcDhs++T0qe/b/H4/YrEYHj58iFAoBI/HY0W9iKTz119/4dmzZ/j999+dropQmqZhYWEBS0tLQp6mmfpOa5jz8/PBOu1OrSJKJNqzZ88Gu5q/ffsWjx8/drhG9lFVFcFgEKqqCl8dZqwpD5MKhUIIhUKIRqODBfy73S6azSY6nQ6DjGaeE2vc28Xn88Hv98Pr9SIYDEJRFEeXsfofcrJGFljezHwAAAAASUVORK5CYII=;" vertex="1" parent="1">
          <mxGeometry x="620" y="357.75" width="141" height="304.49" as="geometry" />
        </mxCell>
        <mxCell id="2QzjrHOPYdLenBr6jiEW-9" value="Главная страница" style="text;html=1;align=center;verticalAlign=middle;resizable=0;points=[];autosize=1;strokeColor=none;fillColor=none;" vertex="1" parent="1">
          <mxGeometry x="610" y="327.75" width="120" height="30" as="geometry" />
        </mxCell>
        <mxCell id="2QzjrHOPYdLenBr6jiEW-24" style="edgeStyle=orthogonalEdgeStyle;rounded=0;orthogonalLoop=1;jettySize=auto;html=1;entryX=0.5;entryY=0;entryDx=0;entryDy=0;endArrow=block;endFill=0;" edge="1" parent="1" source="2QzjrHOPYdLenBr6jiEW-16" target="2QzjrHOPYdLenBr6jiEW-6">
          <mxGeometry relative="1" as="geometry">
            <Array as="points">
              <mxPoint x="388" y="540" />
            </Array>
          </mxGeometry>
        </mxCell>
        <mxCell id="2QzjrHOPYdLenBr6jiEW-16" value="Проверить логин/пароль" style="ellipse;whiteSpace=wrap;html=1;" vertex="1" parent="1">
          <mxGeometry x="466" y="490" width="120" height="80" as="geometry" />
        </mxCell>
        <mxCell id="2QzjrHOPYdLenBr6jiEW-26" value="&amp;lt;&amp;lt;include&amp;gt;&amp;gt;" style="text;html=1;align=center;verticalAlign=middle;resizable=0;points=[];autosize=1;strokeColor=none;fillColor=none;" vertex="1" parent="1">
          <mxGeometry x="420.5" y="380" width="90" height="30" as="geometry" />
        </mxCell>
        <mxCell id="2QzjrHOPYdLenBr6jiEW-27" value="&amp;lt;&amp;lt;include&amp;gt;&amp;gt;" style="text;html=1;align=center;verticalAlign=middle;resizable=0;points=[];autosize=1;strokeColor=none;fillColor=none;" vertex="1" parent="1">
          <mxGeometry x="230" y="470" width="90" height="30" as="geometry" />
        </mxCell>
        <mxCell id="2QzjrHOPYdLenBr6jiEW-29" value="Перейти на задачу/привычку" style="ellipse;whiteSpace=wrap;html=1;" vertex="1" parent="1">
          <mxGeometry x="800" y="370" width="120" height="80" as="geometry" />
        </mxCell>
        <mxCell id="2QzjrHOPYdLenBr6jiEW-30" value="Добавить задачу/привычку&amp;nbsp;" style="ellipse;whiteSpace=wrap;html=1;" vertex="1" parent="1">
          <mxGeometry x="800" y="470" width="120" height="80" as="geometry" />
        </mxCell>
        <mxCell id="2QzjrHOPYdLenBr6jiEW-34" style="edgeStyle=orthogonalEdgeStyle;rounded=0;orthogonalLoop=1;jettySize=auto;html=1;dashed=1;" edge="1" parent="1" source="2QzjrHOPYdLenBr6jiEW-31" target="2QzjrHOPYdLenBr6jiEW-29">
          <mxGeometry relative="1" as="geometry" />
        </mxCell>
        <mxCell id="2QzjrHOPYdLenBr6jiEW-31" value="Отредактировать задачу/привычку&amp;nbsp;" style="ellipse;whiteSpace=wrap;html=1;" vertex="1" parent="1">
          <mxGeometry x="950" y="320" width="120" height="80" as="geometry" />
        </mxCell>
        <mxCell id="2QzjrHOPYdLenBr6jiEW-35" style="edgeStyle=orthogonalEdgeStyle;rounded=0;orthogonalLoop=1;jettySize=auto;html=1;entryX=1;entryY=0.5;entryDx=0;entryDy=0;dashed=1;" edge="1" parent="1" source="2QzjrHOPYdLenBr6jiEW-33" target="2QzjrHOPYdLenBr6jiEW-29">
          <mxGeometry relative="1" as="geometry" />
        </mxCell>
        <mxCell id="2QzjrHOPYdLenBr6jiEW-33" value="Удалить задачу/привычку&amp;nbsp;" style="ellipse;whiteSpace=wrap;html=1;" vertex="1" parent="1">
          <mxGeometry x="950" y="410" width="120" height="80" as="geometry" />
        </mxCell>
        <mxCell id="2QzjrHOPYdLenBr6jiEW-36" value="&amp;lt;&amp;lt;include&amp;gt;&amp;gt;" style="text;html=1;align=center;verticalAlign=middle;resizable=0;points=[];autosize=1;strokeColor=none;fillColor=none;" vertex="1" parent="1">
          <mxGeometry x="870" y="340" width="90" height="30" as="geometry" />
        </mxCell>
        <mxCell id="2QzjrHOPYdLenBr6jiEW-37" value="&amp;lt;&amp;lt;include&amp;gt;&amp;gt;" style="text;html=1;align=center;verticalAlign=middle;resizable=0;points=[];autosize=1;strokeColor=none;fillColor=none;" vertex="1" parent="1">
          <mxGeometry x="870" y="440" width="90" height="30" as="geometry" />
        </mxCell>
      </root>
    </mxGraphModel>
  </diagram>
</mxfile>
